<?xml version="1.0" encoding="UTF-8" standalone="no"?>
<svg
   xmlns:dc="http://purl.org/dc/elements/1.1/"
   xmlns:cc="http://creativecommons.org/ns#"
   xmlns:rdf="http://www.w3.org/1999/02/22-rdf-syntax-ns#"
   xmlns:svg="http://www.w3.org/2000/svg"
   xmlns="http://www.w3.org/2000/svg"
   id="svg20"
   xml:space="preserve"
   viewBox="0 0 1024 768"
   y="0px"
   x="0px"
   version="1.1"><metadata
     id="metadata24"><rdf:RDF><cc:Work
         rdf:about=""><dc:format>image/svg+xml</dc:format><dc:type
           rdf:resource="http://purl.org/dc/dcmitype/StillImage" /></cc:Work></rdf:RDF></metadata><defs
     id="defs5"><filter
       id="squiggle"><feTurbulence
         seed="0"
         result="noise"
         numOctaves="3"
         baseFrequency="0.03"
         id="turbulence"><animate
           repeatCount="indefinite"
           dur="10s"
           to="80"
           from="1"
           attributeName="seed"
           attributeType="XML" /></feTurbulence><feDisplacementMap
         scale="6"
         in2="noise"
         in="SourceGraphic"
         id="displacement" /></filter></defs><g
     style="filter:url(#squiggle)"
     id="g18"><g
       transform="matrix(1.0901,0,0,1.0901,-46.114,-20.564)"
       id="logo-group"><path
         stroke-miterlimit="2"
         d="m 325.46,398.76 q 0,2.4961 -3.1641,2.4961 -1.2305,0 -1.6875,-0.17578 -11.742,-12.023 -22.922,-12.023 -2.4609,0 -10.336,1.9688 -2.4609,0.59766 -4.3594,4.2539 -0.45703,0.84375 -2.4609,5.9062 -0.49218,0.42187 -2.25,1.2656 -1.125,-1.0898 -1.125,-2.9883 0,-6.7852 3.3047,-14.062 0.84375,-1.3359 2.4609,-4.1133 l 6.3633,-13.957 q 7.7695,-16.805 14.73,-28.617 l 0.0352,1.0898 q 1.6523,-0.77344 2.4961,-4.1836 0.77344,-3.0586 2.3203,-3.0586 0.14063,-0.10547 0.38672,-0.10547 1.0195,0 1.6172,1.6523 0.10547,0.42188 0.98437,4.1484 3.1992,13.535 6.6445,31.43 l 2.1094,10.969 q 0.77344,1.5117 2.0039,4.5 0.5625,1.8633 1.6523,6.8203 1.1953,5.4141 1.1953,6.7852 z m -6.8203,-6.1172 v -2.0742 q 0,-1.4062 -2.0039,-12.023 l -3.4453,-18.246 q -1.582,-8.5781 -5.0273,-17.754 -4.5,4.7461 -12.129,22.676 l -2.3555,5.4492 q -0.84375,1.1953 -1.4766,2.25 -0.63281,1.0195 -2.6016,5.7656 -2.0742,4.957 -2.0742,5.625 0,1.0898 0.5625,1.0898 l 9.8789,-0.42187 q 0.63282,-0.0352 1.2656,-0.0352 5.1328,0 9.7031,1.8633 3.375,1.4062 9.7031,5.8359 z"
         style="font-variant-ligatures:none;fill:#eaeaea;stroke-width:0;stroke-miterlimit:2"
         id="path519423" /><path
         stroke-miterlimit="2"
         d="m 364.74,379 q 0,0.73828 -0.73828,8.4023 -0.63281,6.3633 -1.5469,13.852 -0.0703,0.5625 -1.125,0.5625 -1.3711,0 -2.25,-3.4453 -0.66797,-2.6367 -0.66797,-4.6758 0,-0.77344 0.8789,-5.5547 0.91407,-4.7812 0.91407,-5.5195 0,-2.0742 -1.125,-2.0742 -1.4414,0 -6.1524,2.4961 -4.0781,2.1797 -5.9414,3.5508 -3.5508,2.6016 -8.0508,7.8398 -0.73828,0.84375 -2.8828,3.2344 -0.84375,0.87891 -3.3398,0.91407 v -2.3555 q 0,-1.6524 6.4688,-7.2774 5.168,-4.5 10.828,-8.1562 7.9453,-5.168 11.812,-5.168 1.0195,0 1.9688,1.125 0.94922,1.125 0.94922,2.25 z"
         style="font-variant-ligatures:none;fill:#eaeaea;stroke-width:0;stroke-miterlimit:2"
         id="path519425" /><path
         stroke-miterlimit="2"
         d="m 384.05,363.88 0.0352,0.14062 q 0,1.3711 -2.8828,3.3398 -0.84375,-0.2461 -3.4453,-2.8828 1.0547,-2.5312 2.2852,-2.5312 1.1602,0 4.0078,1.9336 z m -3.3047,26.859 q -0.42187,5.6953 -0.42187,6.6094 -1.6875,0.94922 -3.0234,0.94922 -0.5625,-1.6172 -0.5625,-4.0078 0,-13.289 3.3047,-14.098 1.1602,0.52734 1.2656,1.793 -0.0351,-0.45703 -0.10546,-0.49219 0.0351,0.38672 0.0351,0.94922 0,2.4961 -0.49219,8.2969 z"
         style="font-variant-ligatures:none;fill:#eaeaea;stroke-width:0;stroke-miterlimit:2"
         id="path519427" /><path
         stroke-miterlimit="2"
         d="m 444.64,385.15 q 0,1.0195 -0.24609,6.6445 -0.2461,5.6602 -0.2461,6.6445 -1.0195,0.0703 -2.0039,0.94922 -2.5664,-2.0742 -2.5664,-6.3984 0,-0.45703 0.21094,-3.2695 0.24609,-2.8125 0.24609,-3.3047 0,-2.1094 -0.66797,-3.3398 h -1.2305 q -1.5469,0 -11.883,6.3633 l -10.266,6.3633 q -1.5469,0 -4.1836,-1.9688 -0.0703,-0.3164 -0.0703,-0.70312 0,-0.42188 0.31641,-2.9531 0.3164,-2.5312 0.3164,-2.9883 0,-2.2148 -0.98437,-3.6211 h -1.1953 q -1.582,0 -15.398,12.621 h -2.0391 q -0.91406,-1.3711 -0.91406,-2.0039 0,-0.98438 4.5703,-3.9024 0.66797,-0.42187 8.0156,-7.1016 5.5547,-5.0273 8.6133,-5.0273 3.3047,0 3.3047,7.6289 0,0.63281 -0.0703,2.0742 -0.14063,1.4414 -0.14063,2.1094 1.3008,0.28125 1.3711,0.35156 -0.0351,0.0351 -0.17578,0.0351 0.70313,0 12.094,-6.8555 0.84375,-0.77344 2.7774,-2.0039 6.6445,-2.8828 9.1055,-2.8828 3.3398,0 3.3398,6.5391 z"
         style="font-variant-ligatures:none;fill:#eaeaea;stroke-width:0;stroke-miterlimit:2"
         id="path519429" /><path
         stroke-miterlimit="2"
         d="m 485.29,396.12 q -1.3008,1.5469 -3.375,1.5469 H 469.47 q -4.3242,0 -9.6328,-1.3008 -6.9609,-1.6875 -7.875,-4.2539 -1.0195,-2.8828 -1.0195,-5.5195 0,-5.3086 4.5703,-8.1562 3.8672,-2.4609 9.4219,-2.4609 4.7812,0 7.5938,2.0742 2.8125,2.0391 2.8125,5.5898 0,1.9688 -6.75,4.3242 -5.5898,2.0039 -8.1211,2.0039 -0.31641,0 -0.5625,-0.0352 0,0.49219 -0.77344,1.1953 0.42188,0.70313 4.1133,1.6172 3.3047,0.84375 4.7109,0.84375 h 11.18 q 0,0.0352 4.2188,0.63281 1.3359,0.84375 1.9336,1.8984 z m -14.484,-14.027 q -1.9688,-2.0039 -6.3281,-2.0039 -3.0586,0 -5.6602,1.1953 -3.375,1.5469 -3.375,4.1836 0,0.94921 0.63281,1.3359 h 2.25 q 1.1953,0 6.4688,-2.0039 5.2734,-2.0039 6.0117,-2.707 z"
         style="font-variant-ligatures:none;fill:#eaeaea;stroke-width:0;stroke-miterlimit:2"
         id="path519431" /><path
         stroke-miterlimit="2"
         d="m 646.16,398.09 q -0.45704,0.52734 -0.52735,1.125 -0.42187,0.0703 -1.5469,0.24609 -1.3008,0.28125 -1.7578,0.28125 -0.21093,0 -9.4922,-5.2031 -9.3516,-5.2031 -9.7383,-5.2031 -0.2461,0 -8.5781,3.5508 -11.918,5.0274 -18.914,5.0274 -10.195,0 -19.512,-6.1875 -10.406,-6.9609 -10.406,-16.594 0,-11.883 8.1914,-13.008 6.6797,-8.0859 20.039,-12.059 10.688,-3.1992 23.555,-3.1992 3.9023,0 10.793,2.4961 8.0508,2.8828 8.0508,5.8711 0,0.14063 0.77343,1.125 0.77344,0.94922 0.77344,1.0898 0.35156,0.8086 0.94922,3.7969 0.59766,3.0938 0.59766,3.9375 0,4.3594 -3.7617,10.934 -3.4102,5.9766 -7.0664,9.4219 0.91406,1.8633 8.0156,5.9414 7.5938,4.3945 9.5625,6.6094 z m -9.9141,-33.398 q 0,-5.7656 -4.0781,-9.5976 -4.043,-3.832 -10.23,-3.832 h -0.84375 q -0.5625,0 -3.1641,-0.59765 -2.6016,-0.63281 -2.9531,-0.63281 -6.1875,0 -13.359,1.5117 -22.676,4.8867 -27.176,17.578 -0.28125,2.9883 -0.73829,6.3633 -0.3164,1.2305 -1.0898,1.2305 -0.10547,0 -0.21094,-0.0352 -2.0039,-1.8984 -2.0039,-4.5703 0,-0.17579 0.0703,-1.1602 0.0703,-1.0195 0.0703,-1.2305 0,-0.35156 -0.0703,-0.70312 0,0.38671 -0.77344,2.4609 -0.77344,2.0391 -0.77344,2.2852 0,0.59766 1.0195,3.6211 1.9688,5.9766 9.2461,10.793 7.3125,4.7812 14.344,4.7812 h 5.4141 q 2.9883,0 7.4883,-1.6875 2.0039,-0.80859 7.3125,-2.8476 0.8086,-0.28125 2.9531,-1.0195 0.80859,-0.63281 0.98437,-2.0039 l -2.3203,-1.6875 q -1.7227,-1.2305 -1.7227,-1.8633 0,-1.125 0.73829,-2.4609 h 1.6875 q 0.14062,0 3.6562,1.8281 3.5508,1.793 3.832,1.793 3.6914,0 8.332,-7.3828 4.3594,-6.9609 4.3594,-10.934 z"
         style="font-variant-ligatures:none;fill:#eaeaea;stroke-width:0;stroke-miterlimit:2"
         id="path519435" /><path
         stroke-miterlimit="2"
         d="m 680.63,378.16 q 0,1.4766 -5.3438,7.3828 -4.7109,5.2031 -6.9961,6.8906 -1.1602,0.84375 -4.957,3.6562 -1.582,1.125 -4.8516,2.2148 -3.3398,1.0898 -5.2383,1.0898 -3.5859,0 -5.9414,-4.6055 -1.9336,-3.7617 -1.9336,-7.8398 0,-3.375 1.4062,-6.9258 0.52734,0 1.0898,-0.49219 0.66797,0.38672 1.8281,1.4766 -0.35156,2.7774 -0.35156,4.8516 0,8.5078 5.5195,8.5078 5.3438,0 12.832,-6.6445 1.1953,-1.0547 11.25,-10.512 h 0.5625 q 1.125,0 1.125,0.94922 z"
         style="font-variant-ligatures:none;fill:#eaeaea;stroke-width:0;stroke-miterlimit:2"
         id="path519437" /><path
         stroke-miterlimit="2"
         d="m 695.23,363.88 0.0352,0.14062 q 0,1.3711 -2.8828,3.3398 -0.84375,-0.2461 -3.4453,-2.8828 1.0547,-2.5312 2.2852,-2.5312 1.1602,0 4.0078,1.9336 z m -3.3047,26.859 q -0.42187,5.6953 -0.42187,6.6094 -1.6875,0.94922 -3.0234,0.94922 -0.5625,-1.6172 -0.5625,-4.0078 0,-13.289 3.3047,-14.098 1.1602,0.52734 1.2656,1.793 -0.0352,-0.45703 -0.10546,-0.49219 0.0351,0.38672 0.0351,0.94922 0,2.4961 -0.49219,8.2969 z"
         style="font-variant-ligatures:none;fill:#eaeaea;stroke-width:0;stroke-miterlimit:2"
         id="path519439" /><path
         stroke-miterlimit="2"
         d="m 746.85,393.59 q -2.1445,0.91406 -4.2539,1.6172 -1.6875,0.5625 -6.5039,1.0195 l -6.5742,0.59765 q -0.80859,0.35157 -3.1641,1.0898 -5.8359,1.4766 -12.445,1.4766 -2.1445,0 -5.5547,-0.73828 -4.043,-0.84375 -4.8164,-2.1094 v -2.9531 l 10.406,-7.9805 q 5.9414,-4.5703 9.4219,-9.1055 -0.52734,-1.5469 -1.6875,-1.5469 -0.0352,0 -0.10547,0 l -0.66797,0.0352 q -0.45703,0.0352 -6.1875,1.3711 -5.73047,1.3359 -6.5039,1.3359 -0.5625,0 -2.8828,-1.0195 0,-0.14063 -0.10546,-0.87891 -0.0703,-0.77344 -0.0703,-0.91406 0,-0.73828 0.2461,-1.1953 l 20.953,-3.6562 q 2.4258,0.63282 2.4258,3.832 0,4.2891 -7.2773,10.898 -0.52734,0.49219 -10.758,9.4219 0.59765,0.70312 1.9336,0.70312 h 0.98438 q -0.0352,0 -0.0352,0 0,-0.0703 11.391,-1.0547 5.5195,-0.45704 13.957,-1.2656 0.0703,0 1.4414,-0.42187 1.3711,-0.42188 1.7227,-0.42188 2.4609,0 4.7109,1.8633 z"
         style="font-variant-ligatures:none;fill:#eaeaea;stroke-width:0;stroke-miterlimit:2"
         id="path519441" /><path
         style="fill:#5a9175;stroke-width:0.57189"
         d="m 527.73,319.63 c -0.37584,-0.007 -0.82673,9.6e-4 -1.0016,0.0168 -0.17488,0.0159 -0.56122,0.0661 -0.85852,0.11129 -0.29731,0.0452 -0.74089,0.12465 -0.98571,0.17648 -0.24484,0.0518 -0.8957,0.21018 -1.4468,0.35199 -0.55073,0.1415 -1.1724,0.29794 -1.3813,0.34723 -0.20891,0.0496 -0.55931,0.11351 -0.77903,0.14245 -0.31353,0.0413 -0.64424,0.0515 -1.5383,0.0487 -0.86299,-0.003 -1.2156,0.008 -1.456,0.0436 -0.17457,0.0261 -0.44866,0.0916 -0.60958,0.14531 -0.1609,0.0541 -0.44294,0.17425 -0.62674,0.2671 -0.27504,0.13927 -0.36503,0.17011 -0.50907,0.17297 -0.096,0.002 -0.33928,0.0321 -0.54055,0.0665 -0.20096,0.0346 -0.54977,0.11351 -0.77457,0.1752 -0.22513,0.0617 -0.59717,0.18601 -0.82673,0.27664 -0.22989,0.0903 -0.6038,0.25978 -0.83118,0.37647 -0.22735,0.1167 -0.54659,0.29349 -0.70972,0.3927 -0.1628,0.0992 -0.42767,0.26836 -0.58825,0.37647 -0.16057,0.10779 -0.47791,0.33514 -0.70525,0.50558 -0.22735,0.17011 -0.5994,0.46169 -0.82673,0.64801 -0.22735,0.18601 -0.89987,0.76376 -1.4945,1.284 -0.59459,0.51988 -1.3886,1.2032 -1.7647,1.5183 -0.37584,0.31512 -1.2846,1.0642 -2.0191,1.6652 -0.73453,0.60094 -1.636,1.3459 -2.0032,1.656 -0.36726,0.30971 -0.94408,0.80957 -1.2817,1.1104 -0.33737,0.3008 -0.83119,0.75707 -1.097,1.0137 -0.36567,0.35326 -0.59397,0.54214 -0.93962,0.7768 -0.2512,0.17075 -0.59397,0.42099 -0.76187,0.55581 -0.16789,0.13514 -0.47028,0.39715 -0.6722,0.58282 -0.20192,0.18537 -0.48237,0.46455 -0.62325,0.62004 -0.14118,0.15549 -0.36471,0.41336 -0.49667,0.57298 -0.13228,0.15994 -0.34278,0.43371 -0.46774,0.60889 -0.12496,0.1752 -0.34277,0.5024 -0.48427,0.72722 -0.14118,0.2248 -0.39651,0.68935 -0.56726,1.0322 -0.17107,0.34309 -0.38634,0.81528 -0.47855,1.0493 -0.0922,0.23435 -0.23053,0.61879 -0.30747,0.85504 -0.077,0.23593 -0.20319,0.68684 -0.28077,1.0016 -0.0773,0.31479 -0.17616,0.78698 -0.21973,1.0493 -0.0436,0.26233 -0.10207,0.67729 -0.12973,0.92212 -0.028,0.24484 -0.0591,0.80288 -0.0693,1.2401 -0.0118,0.49445 -0.004,0.99938 0.0191,1.3355 0.021,0.2973 0.0668,0.75518 0.10143,1.0175 0.0347,0.26233 0.0992,0.66299 0.14277,0.89032 0.0439,0.22735 0.13546,0.62988 0.20382,0.89444 0.068,0.26455 0.17615,0.64389 0.24007,0.84262 0.0636,0.19873 0.2089,0.5978 0.32274,0.8862 0.11383,0.2884 0.30493,0.72499 0.42417,0.96982 0.11956,0.24483 0.31956,0.62324 0.44453,0.84102 0.12528,0.21749 0.35421,0.58253 0.50907,0.81083 0.15485,0.2283 0.41463,0.58573 0.57744,0.7943 0.16249,0.2089 0.41018,0.49858 0.55009,0.64423 l 0.25438,0.26455 0.12719,-3.1e-4 c 0.07,0 0.17297,-0.028 0.22894,-0.0623 0.0556,-0.034 0.12527,-0.0979 0.15389,-0.14213 0.0289,-0.0439 0.0547,-0.13768 0.0576,-0.20795 l 0.005,-0.12783 0.19079,-3.1e-4 c 0.10493,0 0.48395,-0.0219 0.84262,-0.0483 0.35867,-0.0267 0.93802,-0.077 1.2878,-0.11193 0.34976,-0.035 0.92909,-0.0998 1.2878,-0.14468 0.35867,-0.0445 0.95168,-0.13068 1.3183,-0.1911 0.36631,-0.0604 0.88872,-0.15866 1.1606,-0.21844 0.27157,-0.0598 0.66585,-0.15836 0.87574,-0.21909 0.20986,-0.0611 0.48299,-0.15231 0.60735,-0.20318 0.124,-0.0509 0.31988,-0.145 0.43498,-0.20954 0.11511,-0.0642 0.25692,-0.17298 0.31543,-0.24103 0.0639,-0.0747 0.15389,-0.25278 0.22576,-0.44738 0.0658,-0.17774 0.15421,-0.46169 0.19682,-0.63085 0.0426,-0.16916 0.0995,-0.44357 0.12655,-0.60958 0.0267,-0.1663 0.0655,-0.54469 0.0859,-0.84137 0.0283,-0.41209 0.028,-0.79458 -6.3e-4,-1.6216 -0.0207,-0.59523 -0.0375,-1.2496 -0.0372,-1.4544 3.1e-4,-0.20446 0.0222,-0.53705 0.0487,-0.73928 0.0267,-0.20192 0.0706,-0.46297 0.0976,-0.5803 0.0274,-0.11733 0.0928,-0.34977 0.14627,-0.51671 0.0531,-0.16693 0.17107,-0.46105 0.26265,-0.65344 0.0913,-0.19237 0.22767,-0.44993 0.3027,-0.57235 0.0754,-0.12242 0.23339,-0.35136 0.35136,-0.50875 0.11829,-0.1574 0.34023,-0.4194 0.49349,-0.5819 0.15326,-0.1628 0.41591,-0.41114 0.58413,-0.552 0.16789,-0.14086 0.44135,-0.35327 0.60735,-0.47219 0.1663,-0.11924 0.47378,-0.3202 0.68364,-0.44675 0.20986,-0.12687 0.61816,-0.34691 0.90719,-0.48936 0.28935,-0.14245 0.74723,-0.34626 1.0175,-0.45311 0.2706,-0.10715 0.71383,-0.26805 0.98474,-0.35803 0.27123,-0.09 0.7577,-0.23467 1.0811,-0.32179 0.3237,-0.0868 0.90302,-0.22226 1.2878,-0.30048 0.38474,-0.0782 0.99303,-0.18475 1.3514,-0.23689 0.35867,-0.0518 0.86773,-0.11574 1.1316,-0.14213 0.26392,-0.0261 0.77903,-0.0636 1.1447,-0.0836 0.37616,-0.0204 0.89953,-0.0267 1.2054,-0.0146 0.29731,0.0118 0.76251,0.042 1.0334,0.0674 0.27123,0.0254 0.66614,0.0741 0.87791,0.10843 0.21177,0.0343 0.56058,0.0992 0.77554,0.14468 0.21463,0.0455 0.59014,0.1399 0.83433,0.20986 0.24453,0.07 0.61782,0.19174 0.83022,0.27059 0.21241,0.0785 0.64389,0.26901 0.95866,0.42323 0.32306,0.15835 0.7593,0.40478 1.0016,0.56631 0.23625,0.15707 0.59014,0.42449 0.78698,0.59396 0.19682,0.16948 0.4741,0.43944 0.61621,0.60003 0.14181,0.16058 0.33928,0.40637 0.43848,0.54628 0.0992,0.1399 0.23181,0.34023 0.29445,0.44516 0.063,0.10493 0.16407,0.29094 0.2248,0.41336 0.0611,0.12242 0.16185,0.35327 0.22481,0.51289 0.0626,0.1593 0.15739,0.45279 0.21018,0.65184 0.0528,0.19873 0.12083,0.50462 0.15135,0.67952 0.043,0.24738 0.0556,0.50526 0.056,1.1606 5.7e-4,0.72527 -0.009,0.90559 -0.0712,1.2938 -0.0397,0.24802 -0.12115,0.64864 -0.18029,0.89032 -0.0595,0.24166 -0.15771,0.58922 -0.21813,0.77297 -0.0604,0.18347 -0.16312,0.46965 -0.2283,0.63595 -0.0652,0.16598 -0.23021,0.53101 -0.36694,0.81082 -0.13672,0.27982 -0.34691,0.67346 -0.4671,0.87442 -0.11987,0.20096 -0.30939,0.50144 -0.42068,0.66774 -0.11129,0.16598 -0.32369,0.46679 -0.47219,0.66774 -0.14849,0.20096 -0.36407,0.48014 -0.47854,0.62005 -0.11479,0.13991 -0.3733,0.44039 -0.57424,0.66774 -0.20096,0.22735 -0.61655,0.66362 -0.92337,0.96981 -0.30685,0.30589 -0.76537,0.74117 -1.0188,0.9673 -0.25374,0.22608 -0.66139,0.57778 -0.90622,0.78126 -0.24484,0.20382 -0.68839,0.56154 -0.98571,0.79493 -0.29731,0.23307 -0.75518,0.5962 -1.0175,0.80671 -0.26233,0.21049 -0.66934,0.54786 -0.90433,0.74975 -0.23498,0.20191 -0.64292,0.56853 -0.90622,0.81466 -0.26328,0.2461 -0.65659,0.63977 -0.87379,0.87476 -0.21718,0.23467 -0.53324,0.60003 -0.70274,0.8118 -0.16916,0.21145 -0.40097,0.51925 -0.51544,0.68364 -0.11447,0.16439 -0.28903,0.43308 -0.38824,0.59717 -0.0995,0.16439 -0.27282,0.48236 -0.38507,0.70686 -0.11256,0.22449 -0.25692,0.53387 -0.32052,0.68712 -0.0639,0.15358 -0.17106,0.44262 -0.23847,0.64264 -0.0674,0.2 -0.15772,0.49317 -0.20096,0.65184 -0.0433,0.15866 -0.12115,0.50303 -0.1733,0.76536 -0.0521,0.26233 -0.11669,0.65567 -0.14372,0.87442 -0.027,0.21845 -0.0636,0.5819 -0.0814,0.80763 -0.0178,0.22544 -0.0324,0.84165 -0.0324,1.3692 0,0.76153 0.01,0.99269 0.0477,1.1205 0.0305,0.10207 0.0941,0.20859 0.17362,0.29062 0.0693,0.0712 0.1841,0.15931 0.25565,0.19587 l 0.12973,0.0661 -0.0159,0.10208 c -0.009,0.0563 -0.0239,0.30938 -0.034,0.56313 -0.0102,0.25342 -0.0467,0.97616 -0.0817,1.6058 -0.0347,0.6296 -0.0989,1.6954 -0.14245,2.3689 -0.0436,0.67312 -0.17171,2.5406 -0.28427,4.1495 -0.11288,1.609 -0.23403,3.3616 -0.26932,3.8952 -0.0353,0.53324 -0.0785,1.2058 -0.0963,1.4945 -0.0178,0.2884 -0.0537,0.89666 -0.0795,1.3514 -0.0258,0.45469 -0.0684,1.2916 -0.0948,1.8601 -0.0261,0.56821 -0.0553,1.2121 -0.0649,1.4309 -0.01,0.21845 -0.0321,0.87665 -0.0502,1.4627 -0.0181,0.58573 -0.0318,2.0738 -0.0308,3.3069 9.7e-4,1.2331 0.0137,2.5002 0.0283,2.8159 0.0238,0.5132 0.0353,0.59299 0.10652,0.74883 0.0439,0.0957 0.1256,0.2264 0.18156,0.28999 0.0557,0.0636 0.16185,0.14499 0.23594,0.18061 0.0887,0.0432 0.41018,0.10811 0.9447,0.19173 0.44548,0.0693 1.1034,0.16249 1.4617,0.20668 0.35867,0.0442 0.94534,0.10875 1.3037,0.14373 0.35868,0.035 0.95232,0.0852 1.3196,0.11161 0.36726,0.0264 0.92532,0.062 1.2401,0.0788 0.3148,0.0172 1.1876,0.0471 1.9396,0.0668 0.75198,0.0194 1.8967,0.0305 2.5438,0.0248 l 1.1765,-0.0105 0.16757,-0.0928 c 0.10684,-0.0591 0.20191,-0.14468 0.26264,-0.23658 0.0525,-0.0792 0.10811,-0.1946 0.12401,-0.25691 0.0159,-0.0623 0.0385,-0.2423 0.0503,-0.40033 l 0.0213,-0.28745 0.19524,-0.12592 c 0.10747,-0.0693 0.31701,-0.22512 0.46614,-0.34595 0.14913,-0.12083 0.38856,-0.33196 0.53261,-0.46901 0.14404,-0.13736 0.50176,-0.50334 0.79492,-0.81334 0.29317,-0.31035 1.213,-1.2509 2.0439,-2.0907 0.84074,-0.84931 1.7247,-1.7756 1.9927,-2.0875 0.26519,-0.30843 0.50112,-0.59459 0.52433,-0.63594 0.0232,-0.0414 0.0738,-0.11097 0.11257,-0.15486 0.0385,-0.0439 0.14054,-0.22988 0.22703,-0.41336 0.0865,-0.18347 0.20255,-0.46233 0.25819,-0.6197 0.0557,-0.1574 0.14913,-0.47219 0.20732,-0.69954 0.0585,-0.22735 0.13578,-0.59236 0.17202,-0.81082 0.0363,-0.21877 0.0906,-0.61908 0.12115,-0.89032 0.0448,-0.39906 0.0553,-0.76788 0.0544,-1.9396 -5.7e-4,-0.92338 -0.0204,-1.8092 -0.0547,-2.4484 -0.0296,-0.55105 -0.0677,-1.5956 -0.0855,-2.3212 -0.0175,-0.72596 -0.0563,-2.028 -0.0865,-2.8935 -0.0375,-1.0792 -0.055,-2.3635 -0.0556,-4.0859 -10e-4,-1.7282 0.0114,-2.7005 0.0397,-3.1161 0.0226,-0.33228 0.0623,-0.85469 0.0881,-1.1606 0.0261,-0.3062 0.0763,-0.79967 0.11193,-1.097 0.0356,-0.2973 0.11319,-0.84102 0.17266,-1.2083 0.0591,-0.36726 0.15231,-0.88237 0.20668,-1.1447 0.0547,-0.26232 0.14913,-0.67729 0.21018,-0.92211 0.0614,-0.24484 0.14785,-0.56567 0.19237,-0.71292 0.0524,-0.17298 0.076,-0.31353 0.0671,-0.39747 l -0.0143,-0.12973 0.47886,-0.36567 c 0.2636,-0.20128 0.79395,-0.61753 1.1794,-0.92561 0.38506,-0.30779 0.89318,-0.72973 1.1294,-0.93704 0.23625,-0.20764 0.66585,-0.61398 0.95517,-0.90302 0.28904,-0.28903 0.66586,-0.68998 0.83691,-0.89094 0.17138,-0.20096 0.42131,-0.45979 0.55581,-0.57458 0.13419,-0.11511 0.35995,-0.34405 0.50144,-0.50876 0.1415,-0.16502 0.44802,-0.5574 0.68078,-0.87219 0.23308,-0.31479 0.55995,-0.74403 0.72659,-0.95391 0.1663,-0.20987 0.48141,-0.5962 0.69988,-0.85853 0.21845,-0.26232 0.69125,-0.8277 1.0506,-1.256 0.35931,-0.42863 0.80351,-0.92973 0.9876,-1.1139 0.18411,-0.18442 0.60638,-0.59299 0.93865,-0.90845 l 0.60414,-0.57332 0.13769,0.0137 0.13736,0.0134 0.14277,-0.15326 c 0.0789,-0.0843 0.26837,-0.31861 0.42195,-0.5202 0.15326,-0.20192 0.39333,-0.53865 0.53355,-0.7485 0.14023,-0.20986 0.34119,-0.53196 0.44644,-0.71543 0.10524,-0.18379 0.26359,-0.47791 0.35199,-0.65436 0.0881,-0.17615 0.22417,-0.46964 0.30207,-0.65218 0.0782,-0.18284 0.214,-0.54088 0.30208,-0.79556 0.0881,-0.25501 0.21018,-0.66231 0.27123,-0.90559 0.0611,-0.24325 0.14086,-0.60701 0.17711,-0.80797 0.0362,-0.20096 0.0884,-0.55168 0.11574,-0.77903 0.0273,-0.22735 0.0582,-0.72813 0.068,-1.1129 0.0108,-0.41368 0.003,-0.90748 -0.0185,-1.2083 -0.0204,-0.27982 -0.0728,-0.7593 -0.11669,-1.0652 -0.0439,-0.3062 -0.13069,-0.79269 -0.19237,-1.0811 -0.062,-0.28872 -0.1892,-0.7895 -0.283,-1.1129 -0.0935,-0.3237 -0.23498,-0.76982 -0.31384,-0.99177 -0.0792,-0.22226 -0.23244,-0.62291 -0.34055,-0.89032 -0.10811,-0.26773 -0.2884,-0.68713 -0.40064,-0.93196 -0.11192,-0.24484 -0.32974,-0.68838 -0.48364,-0.98571 -0.15389,-0.2973 -0.3911,-0.73385 -0.52719,-0.96981 -0.13578,-0.23626 -0.39397,-0.66551 -0.57361,-0.95392 -0.17996,-0.28872 -0.48045,-0.7466 -0.66808,-1.0175 -0.18792,-0.27123 -0.48459,-0.68615 -0.65979,-0.92211 -0.1752,-0.23626 -0.53642,-0.70114 -0.80288,-1.0334 -0.26646,-0.33228 -0.66648,-0.8118 -0.88843,-1.0652 -0.22226,-0.25375 -0.67094,-0.74564 -0.99715,-1.0935 -0.32624,-0.34754 -0.88014,-0.90559 -1.2305,-1.2401 -0.35041,-0.33419 -0.82958,-0.78 -1.0652,-0.99046 -0.2353,-0.21049 -0.60667,-0.53292 -0.82547,-0.71669 -0.21845,-0.18347 -0.54755,-0.45597 -0.73134,-0.60512 -0.18346,-0.14912 -0.57012,-0.44993 -0.85852,-0.66871 -0.2884,-0.21845 -0.69633,-0.51956 -0.90622,-0.66934 -0.20986,-0.14977 -0.69633,-0.47918 -1.0811,-0.73196 -0.38475,-0.25279 -0.91417,-0.5886 -1.1765,-0.74598 -0.26232,-0.15772 -0.67729,-0.39842 -0.92211,-0.53546 -0.24484,-0.13705 -0.74563,-0.40319 -1.1129,-0.59145 -0.36726,-0.18824 -0.918,-0.45566 -1.2242,-0.59431 -0.30589,-0.13864 -0.81335,-0.35549 -1.1278,-0.48236 -0.31416,-0.12656 -0.76473,-0.29953 -1.0016,-0.38411 -0.23657,-0.0846 -0.63057,-0.21813 -0.87539,-0.29667 -0.24484,-0.0785 -0.59586,-0.18601 -0.78001,-0.23912 -0.1841,-0.0528 -0.5132,-0.13958 -0.73133,-0.19205 -0.21813,-0.0528 -0.5396,-0.11828 -0.71446,-0.14594 -0.18634,-0.0289 -0.60129,-0.0547 -1.0016,-0.062 z m -1.268,2.0185 h 0.70525 l -0.29985,0.31002 c -0.16471,0.17044 -0.48077,0.51385 -0.70176,0.76314 -0.22099,0.24897 -0.76599,0.90719 -1.2112,1.4627 -0.44485,0.55519 -0.9339,1.1514 -1.0865,1.3247 l -0.27727,0.31542 0.0194,0.0976 c 0.0108,0.0537 0.0394,0.11765 0.0636,0.14182 0.0245,0.0245 0.0801,0.0442 0.12401,0.0442 0.0524,0 0.34595,-0.18919 0.85343,-0.55009 0.42545,-0.30271 0.91674,-0.65756 1.0916,-0.78886 0.17488,-0.13101 0.43244,-0.33196 0.57235,-0.44643 0.1399,-0.11479 0.53355,-0.45184 0.87442,-0.74912 0.34118,-0.29731 0.74249,-0.66231 0.89221,-0.81146 0.14976,-0.14881 0.35962,-0.38157 0.46677,-0.5167 0.10717,-0.13514 0.22036,-0.28904 0.25152,-0.34182 0.0509,-0.0862 0.0687,-0.0944 0.16916,-0.0773 0.0617,0.0102 0.29127,0.0544 0.50971,0.0976 0.21877,0.0436 0.51194,0.10748 0.65184,0.14246 0.13991,0.0346 0.33037,0.0852 0.42354,0.11192 l 0.16916,0.0483 -0.31225,0.14054 c -0.1717,0.0773 -0.46042,0.2299 -0.64132,0.33896 -0.18092,0.10907 -0.4814,0.31257 -0.66774,0.45184 -0.18633,0.13928 -0.57583,0.48968 -0.86584,0.77903 -0.28999,0.28904 -0.65281,0.68301 -0.80637,0.8754 -0.15326,0.19237 -0.44039,0.59299 -0.63817,0.89032 -0.19778,0.2973 -0.41877,0.65344 -0.49127,0.79172 -0.0725,0.138 -0.12432,0.27028 -0.1151,0.29413 0.009,0.0235 0.003,0.0429 -0.0127,0.0429 -0.0162,0 -0.17647,-0.028 -0.35676,-0.062 -0.17997,-0.0343 -0.56344,-0.0979 -0.85217,-0.1415 -0.2884,-0.0439 -0.72499,-0.10143 -0.96982,-0.12782 -0.24484,-0.0264 -0.60958,-0.063 -0.81082,-0.0811 -0.20096,-0.0178 -0.66614,-0.0471 -1.0334,-0.0645 -0.36726,-0.0175 -0.92532,-0.0318 -1.2401,-0.0315 -0.31479,0 -0.87986,0.0143 -1.256,0.0318 -0.37584,0.0175 -0.94122,0.0534 -1.256,0.0798 -0.31479,0.0261 -0.85949,0.0836 -1.2105,0.12751 -0.35104,0.0439 -0.80162,0.1062 -1.0016,0.13895 -0.2,0.0324 -0.36726,0.056 -0.3717,0.0518 -0.005,-0.004 0.13831,-0.0957 0.31797,-0.20414 0.17933,-0.10811 0.46933,-0.29889 0.64423,-0.42385 0.17489,-0.12465 0.61845,-0.44834 0.98571,-0.71893 0.36726,-0.27091 0.80385,-0.60254 0.96982,-0.73768 0.1663,-0.13482 0.44611,-0.39365 0.62193,-0.57521 0.17584,-0.18156 0.39206,-0.43753 0.48046,-0.56853 0.0884,-0.13132 0.21431,-0.34468 0.27949,-0.47473 0.0944,-0.18697 0.11543,-0.25947 0.1008,-0.34786 -0.01,-0.0614 -0.0458,-0.13928 -0.0795,-0.1733 -0.0337,-0.0337 -0.0986,-0.0614 -0.14404,-0.0614 -0.0455,0 -0.20795,0.0601 -0.3609,0.13323 -0.15294,0.0731 -0.43562,0.2388 -0.62799,0.36789 -0.19237,0.1291 -0.46678,0.33324 -0.60958,0.45343 -0.14309,0.1202 -0.5008,0.43403 -0.79493,0.69731 -0.29444,0.26328 -0.80671,0.70588 -1.1386,0.98348 -0.33228,0.27759 -0.75295,0.64772 -0.93516,0.82261 -0.18251,0.17488 -0.43499,0.44166 -0.56122,0.59299 -0.12623,0.15104 -0.25501,0.31765 -0.28585,0.36981 -0.0493,0.0833 -0.0881,0.10207 -0.31384,0.14944 -0.1415,0.0296 -0.57235,0.13037 -0.95712,0.22354 -0.38474,0.0932 -0.90845,0.22735 -1.1638,0.29793 -0.25564,0.0706 -0.77073,0.22354 -1.1447,0.33928 -0.37425,0.11606 -0.98097,0.31829 -1.3482,0.44961 -0.36726,0.13132 -0.97525,0.36026 -1.3514,0.50907 -0.37584,0.14882 -0.97679,0.39969 -1.3355,0.55741 -0.35867,0.15803 -0.74849,0.33546 -0.86647,0.3946 -0.11953,0.0595 -0.21618,0.10123 -0.21618,0.0938 0,-0.008 0.3113,-0.28395 0.69159,-0.61369 0.3803,-0.32974 0.82038,-0.70715 0.97776,-0.83942 0.1574,-0.13196 0.58665,-0.47378 0.95392,-0.75965 0.36726,-0.28617 1.0757,-0.84422 1.574,-1.2404 0.49858,-0.39587 1.1854,-0.92784 1.5263,-1.1819 0.34119,-0.25405 0.83468,-0.60477 1.097,-0.77937 0.26233,-0.17456 0.59872,-0.38284 0.74724,-0.46297 0.14881,-0.0801 0.39206,-0.19587 0.54055,-0.25692 0.14881,-0.0611 0.52561,-0.19873 0.83753,-0.30557 0.31193,-0.10685 0.65533,-0.23848 0.76313,-0.29286 0.10779,-0.0541 0.26742,-0.14563 0.35486,-0.2035 0.0874,-0.0579 0.25533,-0.20255 0.37298,-0.32179 0.11765,-0.11924 0.24993,-0.26614 0.29413,-0.32624 l 0.0812,-0.1098 0.34199,-0.0881 c 0.18792,-0.0483 0.476,-0.10493 0.64006,-0.1256 0.19301,-0.0242 0.5202,-0.0308 0.92246,-0.0191 0.34309,0.0102 0.87408,0.0477 1.18,0.0833 0.30621,0.0356 0.81495,0.082 1.131,0.10334 0.44166,0.0296 0.67026,0.0299 0.99046,10e-4 0.22894,-0.0204 0.5787,-0.0719 0.7768,-0.11479 0.19841,-0.0426 0.56122,-0.10748 0.80608,-0.14404 0.24484,-0.0366 0.48809,-0.0744 0.54055,-0.084 0.0538,-0.01 -0.0617,0.0668 -0.26583,0.17584 -0.19873,0.10652 -0.49921,0.28554 -0.66774,0.3981 -0.16852,0.11256 -0.40668,0.28459 -0.5291,0.3822 -0.12242,0.0976 -0.35168,0.29667 -0.50971,0.4423 -0.15771,0.14564 -0.40986,0.40605 -0.56026,0.57904 -0.1504,0.17266 -0.39683,0.48364 -0.54755,0.69062 -0.22703,0.31129 -0.27441,0.39651 -0.27441,0.49349 0,0.0645 0.0223,0.14945 0.0496,0.18824 0.0273,0.0391 0.0909,0.0922 0.14149,0.1186 0.0506,0.0261 0.11765,0.0474 0.14913,0.0471 0.0315,0 0.0932,-0.0191 0.13673,-0.0426 0.0439,-0.0232 0.50875,-0.28968 1.0334,-0.59208 0.52465,-0.30208 1.1043,-0.64327 1.2878,-0.75839 0.18379,-0.11479 0.47569,-0.3097 0.64864,-0.43339 0.17329,-0.12338 0.46901,-0.35645 0.65756,-0.5183 0.18856,-0.16184 0.45279,-0.4194 0.58762,-0.57235 0.13482,-0.15294 0.27186,-0.32115 0.3043,-0.37361 0.0328,-0.0525 0.0591,-0.13577 0.0595,-0.18506 0,-0.049 -0.0149,-0.11702 -0.0331,-0.15104 l -0.0328,-0.0614 z m 4.941,0.76313 c 0.009,0 0.25565,0.0878 0.54851,0.1946 0.29284,0.10716 0.75421,0.28872 1.0251,0.40383 0.27123,0.11479 0.78635,0.35517 1.1447,0.53387 0.35867,0.1787 0.92372,0.48109 1.256,0.67185 0.33228,0.19111 0.78314,0.45884 1.0016,0.59523 0.21876,0.13673 0.65504,0.41972 0.96981,0.62959 0.31479,0.20955 0.88014,0.60095 1.256,0.86968 0.37584,0.26868 0.95042,0.69256 1.2766,0.94213 0.32592,0.24929 0.81083,0.63148 1.0773,0.84932 0.26646,0.21749 0.72018,0.60226 1.008,0.85503 0.28776,0.25247 0.78887,0.71069 1.1132,1.0178 0.32465,0.30748 0.8261,0.80986 1.1148,1.1164 0.2884,0.30685 0.69828,0.75805 0.91097,1.0029 0.21272,0.24484 0.53737,0.6312 0.72115,0.85852 0.1841,0.22735 0.48427,0.6137 0.6674,0.85853 0.18315,0.24484 0.46297,0.63119 0.62164,0.85852 0.15899,0.22735 0.39524,0.57778 0.52529,0.77903 0.13037,0.20096 0.33769,0.53069 0.46106,0.73259 0.12337,0.20192 0.30366,0.51289 0.40064,0.69125 0.097,0.1787 0.16662,0.33005 0.15517,0.33673 -0.0118,0.006 -0.0868,0.0213 -0.16661,0.0331 -0.0798,0.0114 -0.23434,0.0633 -0.34373,0.11479 -0.10907,0.0515 -0.27505,0.14467 -0.36853,0.207 -0.0938,0.062 -0.28268,0.22321 -0.41972,0.35804 -0.13705,0.13513 -0.34373,0.36693 -0.45947,0.51543 -0.11606,0.14881 -0.31829,0.43467 -0.44993,0.63594 -0.13132,0.20096 -0.45661,0.74472 -0.72275,1.2083 -0.26614,0.46329 -0.55168,0.94277 -0.63469,1.0652 -0.083,0.12242 -0.16089,0.25406 -0.17329,0.29253 -0.013,0.0413 -0.003,0.10716 0.0248,0.1609 0.0261,0.0499 0.0846,0.10779 0.13037,0.12878 0.0458,0.0207 0.12973,0.0378 0.18601,0.0378 0.0566,0 0.13832,-0.0242 0.18156,-0.0537 0.0432,-0.0299 0.23785,-0.18697 0.43244,-0.34945 0.19492,-0.16217 0.55264,-0.47918 0.79493,-0.704 0.24262,-0.2248 0.62479,-0.61084 0.84932,-0.85789 0.22449,-0.24675 0.56058,-0.58093 0.74723,-0.74277 0.18634,-0.16154 0.48332,-0.43467 0.65979,-0.60667 l 0.32115,-0.31256 0.15168,0.39047 c 0.0836,0.21495 0.20127,0.54087 0.26137,0.72464 0.0604,0.18347 0.15708,0.51448 0.21527,0.73482 l 0.10588,0.40097 -0.17806,-0.10716 c -0.0979,-0.0588 -0.22863,-0.12115 -0.29063,-0.13864 -0.062,-0.0172 -0.22194,-0.0312 -0.35549,-0.0312 -0.15835,-3.2e-4 -0.31956,0.0232 -0.46106,0.0671 -0.12019,0.0369 -0.31129,0.11415 -0.42481,0.1717 -0.11351,0.0579 -0.31098,0.17838 -0.43816,0.26837 -0.12751,0.09 -0.3326,0.25882 -0.45597,0.3752 -0.1237,0.11638 -0.3272,0.34818 -0.45248,0.51512 -0.12528,0.16693 -0.28045,0.4035 -0.34436,0.52592 -0.0642,0.12242 -0.15612,0.33705 -0.20414,0.47696 -0.0715,0.20827 -0.0881,0.31224 -0.09,0.57234 l -0.002,0.31798 0.10238,0.2159 c 0.0909,0.19237 0.11861,0.22321 0.25183,0.28204 0.13292,0.0591 0.16758,0.0623 0.3148,0.0292 0.0909,-0.0204 0.23403,-0.0804 0.31765,-0.13355 0.0836,-0.0531 0.23244,-0.17774 0.33069,-0.27696 0.0983,-0.0992 0.3256,-0.3698 0.50526,-0.60162 0.17965,-0.2318 0.40859,-0.48968 0.50875,-0.57298 0.10016,-0.0833 0.36789,-0.2795 0.5946,-0.43626 0.22767,-0.15676 0.52847,-0.40001 0.6706,-0.54182 l 0.25787,-0.25756 0.0522,0.35168 c 0.0286,0.19364 0.0693,0.49508 0.0906,0.66997 0.0229,0.18793 0.0391,0.73454 0.0394,1.3355 3.2e-4,0.55963 -0.0112,1.0872 -0.0251,1.172 l -0.0261,0.15453 -0.0849,-0.0792 c -0.0467,-0.0439 -0.131,-0.10302 -0.1876,-0.13132 -0.0566,-0.0286 -0.16407,-0.0598 -0.23848,-0.0693 -0.0865,-0.0111 -0.22672,0.006 -0.38729,0.0483 -0.13832,0.0359 -0.35899,0.12337 -0.49063,0.19428 -0.13132,0.0709 -0.3256,0.1981 -0.43181,0.283 -0.10652,0.0846 -0.28013,0.24483 -0.38602,0.3558 -0.1062,0.11129 -0.27313,0.30939 -0.37107,0.44072 -0.0983,0.131 -0.25755,0.36503 -0.35454,0.51956 -0.097,0.15453 -0.25405,0.43339 -0.34913,0.62004 -0.0951,0.18634 -0.2318,0.47664 -0.30334,0.64487 -0.0779,0.18283 -0.13037,0.35581 -0.13037,0.42926 3.2e-4,0.0677 0.0273,0.16789 0.0604,0.22194 0.0331,0.0544 0.11384,0.13196 0.17902,0.17234 0.0763,0.0471 0.16853,0.0735 0.25661,0.0735 0.1062,0 0.17933,-0.0277 0.32147,-0.12179 0.10143,-0.0668 0.3415,-0.23943 0.53387,-0.38347 0.19237,-0.14405 0.48586,-0.37616 0.65184,-0.51575 0.1663,-0.13959 0.4671,-0.42386 0.66837,-0.6312 0.2016,-0.20763 0.44643,-0.4849 0.54405,-0.61592 0.0976,-0.13133 0.22449,-0.32148 0.28141,-0.42291 0.0569,-0.10111 0.10874,-0.17933 0.11478,-0.17329 0.006,0.006 -0.0172,0.18919 -0.0512,0.407 -0.034,0.21781 -0.0897,0.54596 -0.12338,0.72974 -0.034,0.18346 -0.11383,0.57709 -0.17743,0.87442 -0.0633,0.2973 -0.2283,0.98411 -0.36662,1.5263 -0.138,0.54214 -0.3345,1.2862 -0.43626,1.6534 l -0.18505,0.66774 -0.32751,0.17521 c -0.17998,0.0963 -0.47283,0.28204 -0.65087,0.41273 -0.19333,0.14181 -0.54787,0.46169 -0.88014,0.79458 -0.30621,0.30621 -0.70846,0.74312 -0.89381,0.97044 -0.1857,0.22735 -0.54119,0.67792 -0.79047,1.0016 -0.24897,0.3237 -0.45693,0.59237 -0.46169,0.5978 -0.005,0.005 0.0684,-0.24516 0.16248,-0.55645 0.0941,-0.31129 0.24197,-0.85217 0.32878,-1.2019 0.0865,-0.34977 0.20795,-0.9005 0.26932,-1.2242 0.0617,-0.3237 0.14054,-0.78858 0.17552,-1.0334 0.0347,-0.24484 0.0849,-0.65281 0.11129,-0.90622 0.0261,-0.25374 0.0642,-0.80985 0.0843,-1.2363 0.0273,-0.58092 0.0273,-0.97107 0,-1.5581 -0.0197,-0.43053 -0.0572,-0.97587 -0.0833,-1.2121 -0.0257,-0.23625 -0.0693,-0.58665 -0.097,-0.77903 -0.0273,-0.19237 -0.0928,-0.57171 -0.14499,-0.84262 -0.0522,-0.27124 -0.15962,-0.75044 -0.2388,-1.0652 -0.0792,-0.31479 -0.25565,-0.90873 -0.39238,-1.3196 -0.13672,-0.41114 -0.34404,-0.97616 -0.46042,-1.256 -0.11637,-0.27981 -0.35962,-0.80922 -0.54087,-1.1765 -0.18124,-0.36726 -0.44452,-0.86808 -0.58475,-1.1129 -0.14055,-0.24484 -0.38347,-0.6455 -0.54024,-0.89032 -0.15676,-0.24484 -0.4442,-0.669 -0.6388,-0.94248 -0.19492,-0.27346 -0.54151,-0.73133 -0.77045,-1.0175 -0.22863,-0.28617 -0.56091,-0.6849 -0.73768,-0.88586 -0.17711,-0.20128 -0.50431,-0.55295 -0.72722,-0.78223 -0.22322,-0.22894 -0.40573,-0.42576 -0.40573,-0.43721 0,-0.0114 0.0407,-0.0207 0.0906,-0.0207 0.0499,0 0.13514,-0.0321 0.18951,-0.0715 0.0541,-0.0394 0.27505,-0.23626 0.49063,-0.43721 0.21558,-0.20128 0.61432,-0.5609 0.88586,-0.79968 0.27186,-0.2388 0.69381,-0.58922 0.93767,-0.77903 0.2442,-0.18983 0.5202,-0.40955 0.6137,-0.48809 0.0935,-0.0788 0.25247,-0.24579 0.35326,-0.37107 0.10112,-0.12528 0.22258,-0.30748 0.27028,-0.40509 0.0655,-0.13387 0.0817,-0.2035 0.0665,-0.28427 -0.0108,-0.0591 -0.0499,-0.13418 -0.0865,-0.16725 -0.0572,-0.0518 -0.11702,-0.0598 -0.43658,-0.0585 -0.26233,9.8e-4 -0.42576,0.0181 -0.5609,0.0588 -0.10493,0.0318 -0.30016,0.11161 -0.43339,0.17774 -0.13355,0.0661 -0.32688,0.17711 -0.42927,0.24707 -0.1027,0.07 -0.30906,0.23434 -0.45883,0.36534 -0.14976,0.13101 -0.37902,0.35836 -0.50907,0.50462 -0.13037,0.14659 -0.33228,0.38888 -0.44897,0.53864 -0.11702,0.14977 -0.37108,0.50685 -0.56472,0.79367 -0.19397,0.28681 -0.36726,0.57618 -0.38538,0.64327 l -0.0328,0.12146 -0.37203,-0.34691 c -0.20446,-0.1911 -0.51511,-0.47219 -0.68999,-0.6245 -0.17488,-0.15263 -0.53037,-0.4512 -0.78984,-0.66363 -0.25978,-0.2124 -0.71766,-0.57075 -1.0175,-0.7959 -0.30017,-0.22512 -0.85344,-0.61369 -1.2293,-0.86298 -0.37585,-0.24961 -0.9339,-0.59871 -1.2401,-0.77617 -0.30589,-0.17711 -0.83531,-0.4636 -1.1765,-0.63629 -0.34086,-0.17266 -0.82735,-0.40668 -1.0811,-0.5202 -0.25342,-0.11352 -0.73294,-0.31288 -1.0652,-0.44357 -0.33228,-0.13069 -0.77582,-0.29604 -0.98571,-0.36789 -0.20986,-0.0719 -0.59619,-0.19683 -0.85852,-0.27759 -0.26233,-0.0808 -0.77743,-0.22354 -1.1447,-0.31702 -0.36726,-0.0938 -0.66076,-0.1822 -0.65218,-0.19619 0.009,-0.0143 0.13005,-0.13323 0.27027,-0.26487 0.13991,-0.13132 0.4051,-0.36122 0.58859,-0.51066 0.18379,-0.14977 0.60701,-0.48077 0.94088,-0.73643 0.33355,-0.25533 0.76376,-0.59236 0.95551,-0.74912 0.19206,-0.15644 0.50653,-0.44166 0.6992,-0.63342 0.19237,-0.19174 0.4442,-0.46901 0.55899,-0.61622 0.11511,-0.14722 0.28204,-0.38792 0.37139,-0.53482 0.12083,-0.19874 0.16249,-0.2989 0.16249,-0.38952 0,-0.0668 0.007,-0.12178 0.0162,-0.12178 z m -12.113,5.7624 c 0.62959,-0.003 1.3809,0.008 1.6694,0.0261 0.28872,0.0175 0.76788,0.0541 1.0652,0.0811 0.29731,0.027 0.8054,0.0846 1.1288,0.12783 0.3237,0.0432 0.80002,0.11447 1.0591,0.15803 0.25883,0.0436 0.74535,0.13577 1.0811,0.20477 0.33546,0.0687 0.86773,0.18887 1.1826,0.2671 0.3148,0.0779 0.84675,0.22131 1.1822,0.31797 0.33546,0.097 0.87219,0.26391 1.1924,0.37075 0.32052,0.10685 0.86744,0.30176 1.2159,0.43308 0.3485,0.13164 0.88397,0.34627 1.1902,0.47728 0.30589,0.131 0.7533,0.32942 0.994,0.44071 0.24071,0.11129 0.6137,0.29062 0.82896,0.39873 0.21559,0.10779 0.58476,0.30367 0.82101,0.43499 0.23625,0.13164 0.63691,0.36821 0.89032,0.52592 0.25374,0.15772 0.59717,0.3803 0.76313,0.49445 0.1663,0.11447 0.46678,0.33005 0.66774,0.4795 0.20096,0.14945 0.53038,0.40637 0.73133,0.57108 0.20096,0.16471 0.54469,0.46074 0.76314,0.6579 0.21876,0.19714 0.59905,0.56313 0.84582,0.81369 0.24643,0.25056 0.56885,0.59111 0.71607,0.75741 0.14722,0.16598 0.39047,0.45216 0.54024,0.63595 0.15008,0.18346 0.40572,0.51256 0.56852,0.73133 0.16249,0.21844 0.4423,0.61907 0.62131,0.89032 0.17902,0.27091 0.44261,0.69319 0.58538,0.93802 0.14309,0.24483 0.4016,0.72561 0.57458,1.0684 0.17298,0.34278 0.42036,0.87219 0.54977,1.1765 0.1291,0.3043 0.30748,0.75358 0.3962,0.99841 0.0887,0.24483 0.22798,0.65979 0.30938,0.92211 0.0814,0.26233 0.20382,0.69159 0.27155,0.95392 0.068,0.26232 0.1733,0.72018 0.23402,1.0175 0.0607,0.2973 0.14659,0.78377 0.19111,1.0811 0.0442,0.2973 0.10302,0.76856 0.13069,1.0474 0.028,0.27854 0.0633,0.79367 0.0785,1.1447 0.0162,0.37393 0.0159,0.9021 -10e-4,1.2766 -0.0159,0.35168 -0.0582,0.86681 -0.0938,1.1447 -0.0356,0.27822 -0.11352,0.74912 -0.1733,1.0464 -0.0598,0.29731 -0.17424,0.76662 -0.25437,1.043 -0.0801,0.27663 -0.20414,0.66299 -0.276,0.85852 -0.0719,0.19588 -0.21495,0.55327 -0.31765,0.7943 -0.10302,0.24134 -0.26519,0.59397 -0.36058,0.78412 -0.0954,0.19015 -0.28268,0.53674 -0.41623,0.77011 -0.13386,0.23339 -0.36503,0.61021 -0.51416,0.83754 -0.14912,0.22735 -0.37902,0.56344 -0.51066,0.74723 -0.13196,0.18347 -0.37584,0.50557 -0.54246,0.71543 -0.1663,0.20987 -0.46265,0.56758 -0.65819,0.79493 -0.19555,0.22735 -0.59843,0.67095 -0.89507,0.98572 -0.29666,0.31479 -0.7959,0.81557 -1.1094,1.1129 -0.3132,0.2973 -0.79841,0.74689 -1.0782,0.99909 -0.27982,0.25215 -0.80191,0.71 -1.1606,1.0175 -0.35835,0.30748 -1.2099,1.0239 -1.8919,1.5921 -0.75484,0.62862 -1.4496,1.2382 -1.7762,1.5581 -0.29476,0.28872 -0.65819,0.66453 -0.80797,0.83501 -0.14976,0.17075 -0.39206,0.46392 -0.53864,0.65185 -0.14658,0.18792 -0.36789,0.49063 -0.49222,0.67248 -0.12433,0.18157 -0.32497,0.49636 -0.44611,0.69954 -0.12083,0.20287 -0.32529,0.5835 -0.45407,0.84583 -0.12878,0.26232 -0.29412,0.62702 -0.36725,0.81083 -0.0731,0.18346 -0.1892,0.4973 -0.25788,0.69702 -0.069,0.19968 -0.17552,0.54214 -0.2372,0.7609 -0.0617,0.21876 -0.15327,0.59208 -0.20319,0.82924 -0.0502,0.2372 -0.11988,0.60317 -0.15485,0.81306 -0.0353,0.20986 -0.0855,0.56758 -0.11225,0.79493 -0.0267,0.22735 -0.0633,0.5895 -0.0814,0.80448 -0.0181,0.21526 -0.0473,0.79841 -0.0645,1.2961 -0.0207,0.59431 -0.021,1.311 -3.2e-4,2.0891 0.0169,0.65122 0.0671,1.9622 0.11129,2.9133 0.0442,0.95106 0.0938,2.2961 0.11034,2.9889 0.0187,0.78223 0.0191,1.6274 5.7e-4,2.2296 -0.0162,0.53356 -0.0439,1.5352 -0.0617,2.2258 -0.0181,0.69062 -0.0473,1.5279 -0.0655,1.8601 -0.0181,0.33228 -0.054,0.83308 -0.0798,1.1129 -0.0257,0.27982 -0.0766,0.71641 -0.11288,0.96982 -0.0363,0.25342 -0.10143,0.63274 -0.14532,0.84262 -0.0436,0.20986 -0.11351,0.50431 -0.15548,0.65407 -0.0416,0.14977 -0.12083,0.40033 -0.17584,0.55645 -0.0547,0.15613 -0.16217,0.41051 -0.2388,0.56504 -0.0766,0.15485 -0.20223,0.36948 -0.27886,0.47695 -0.077,0.1078 -0.21082,0.26202 -0.2973,0.3431 -0.0868,0.0808 -0.21368,0.18251 -0.28236,0.22544 -0.0684,0.0432 -0.20509,0.10843 -0.30303,0.145 -0.0983,0.0365 -0.26296,0.076 -0.36567,0.0874 -0.10302,0.0114 -0.46614,0.005 -0.80671,-0.0156 -0.34054,-0.02 -0.78509,-0.0572 -0.98731,-0.082 -0.20255,-0.0251 -0.49604,-0.0677 -0.65247,-0.0944 -0.15644,-0.027 -0.45629,-0.0903 -0.66614,-0.14118 -0.20986,-0.0505 -0.53896,-0.14467 -0.73133,-0.20922 -0.19238,-0.0642 -0.53801,-0.207 -0.76857,-0.31702 -0.23021,-0.11002 -0.53069,-0.27472 -0.66774,-0.3663 -0.13673,-0.0916 -0.34659,-0.24579 -0.46615,-0.34278 -0.11924,-0.0973 -0.32337,-0.29126 -0.45374,-0.43117 -0.13005,-0.14022 -0.32274,-0.38092 -0.42863,-0.53514 -0.10556,-0.15453 -0.27663,-0.45597 -0.37965,-0.66997 -0.10335,-0.21399 -0.2299,-0.51861 -0.28141,-0.67695 -0.0515,-0.15803 -0.13005,-0.45152 -0.17488,-0.65184 -0.0448,-0.20032 -0.10684,-0.54309 -0.138,-0.76153 -0.0461,-0.32337 -0.056,-0.59843 -0.0534,-1.4786 0.002,-0.59459 0.02,-1.4531 0.0404,-1.9078 0.0204,-0.4547 0.0515,-1.1199 0.0696,-1.4786 0.0178,-0.35868 0.0607,-1.1313 0.0951,-1.717 0.0344,-0.58602 0.0916,-1.4875 0.12687,-2.0032 0.0356,-0.51607 0.17807,-2.4763 0.31702,-4.3562 0.13864,-1.8802 0.28808,-3.9549 0.33196,-4.6106 0.0436,-0.65595 0.10079,-1.5717 0.12719,-2.035 0.0261,-0.46361 0.069,-1.2935 0.0947,-1.8442 0.0261,-0.55104 0.0639,-1.5116 0.0843,-2.1349 0.0203,-0.62324 0.0308,-1.2671 0.0235,-1.4309 -0.0114,-0.25501 -0.0267,-0.32242 -0.10715,-0.47028 -0.0586,-0.10712 -0.15015,-0.21269 -0.24204,-0.27883 l -0.14754,-0.1062 0.0598,-0.27759 c 0.0327,-0.15263 0.09,-0.39047 0.12655,-0.52847 0.0369,-0.13799 0.12274,-0.41272 0.19079,-0.61049 0.0684,-0.19778 0.1876,-0.50303 0.2655,-0.67889 0.0779,-0.17552 0.22099,-0.46043 0.31734,-0.63246 0.0967,-0.17202 0.26424,-0.4477 0.37235,-0.61243 0.10811,-0.1644 0.28299,-0.41369 0.38856,-0.5536 0.10588,-0.1399 0.34277,-0.43339 0.5272,-0.65184 0.1841,-0.21876 0.54977,-0.61244 0.81271,-0.87539 0.26296,-0.26296 0.67821,-0.64996 0.92309,-0.85978 0.24484,-0.21018 0.59431,-0.50208 0.77617,-0.64864 0.18219,-0.1469 0.84039,-0.65853 1.4627,-1.1374 0.62256,-0.47887 1.3402,-1.041 1.5956,-1.249 0.25501,-0.20795 0.64835,-0.54786 0.87442,-0.75581 0.22576,-0.20795 0.56663,-0.552 0.75775,-0.76473 0.19079,-0.21272 0.47983,-0.55264 0.64201,-0.75581 0.16216,-0.20319 0.40191,-0.52148 0.53228,-0.70749 0.13069,-0.18601 0.35168,-0.51734 0.49127,-0.7358 0.13927,-0.21876 0.3558,-0.57646 0.48077,-0.79493 0.12528,-0.21876 0.36122,-0.66202 0.52465,-0.98571 0.16344,-0.32369 0.40828,-0.83879 0.54373,-1.1447 0.13546,-0.30621 0.35232,-0.82673 0.48173,-1.1568 0.12973,-0.33037 0.29253,-0.78824 0.36185,-1.0175 0.0693,-0.22957 0.16153,-0.59619 0.20541,-0.81466 0.0436,-0.21876 0.1008,-0.5835 0.12687,-0.81048 0.0264,-0.22735 0.0477,-0.66391 0.0477,-0.97016 0,-0.3062 -0.0216,-0.74214 -0.0483,-0.96884 -0.0264,-0.22639 -0.0836,-0.58413 -0.12719,-0.79458 -0.0439,-0.2105 -0.12051,-0.51893 -0.17075,-0.6849 -0.0503,-0.1663 -0.14499,-0.44516 -0.21018,-0.62004 -0.0652,-0.17489 -0.22353,-0.52561 -0.35199,-0.77903 -0.12814,-0.25375 -0.33133,-0.61147 -0.45152,-0.79493 -0.12019,-0.18379 -0.33832,-0.48428 -0.48523,-0.66774 -0.14658,-0.18379 -0.42544,-0.49127 -0.6197,-0.68364 -0.19428,-0.19238 -0.51957,-0.47855 -0.72275,-0.63595 -0.20319,-0.15739 -0.51289,-0.37552 -0.68839,-0.4849 -0.1752,-0.10938 -0.48745,-0.28332 -0.69347,-0.38697 -0.20637,-0.10366 -0.52211,-0.24675 -0.7024,-0.31829 -0.17998,-0.0716 -0.49477,-0.18093 -0.69954,-0.24325 -0.20446,-0.062 -0.62959,-0.1768 -0.94436,-0.2547 -0.31479,-0.0779 -0.82261,-0.19205 -1.1288,-0.25342 -0.30589,-0.0611 -0.8496,-0.15326 -1.2083,-0.20477 -0.35836,-0.0512 -0.90942,-0.11829 -1.2242,-0.14913 -0.44071,-0.0429 -0.87568,-0.056 -1.8919,-0.0566 -0.85378,-6.3e-4 -1.4598,0.0137 -1.717,0.0401 -0.21845,0.0226 -0.62639,0.0703 -0.90622,0.10588 -0.27981,0.0359 -0.73768,0.10748 -1.0175,0.15931 -0.27981,0.0518 -0.76633,0.15962 -1.0811,0.23943 -0.31479,0.0798 -0.79396,0.21654 -1.0652,0.30367 -0.27091,0.0874 -0.7482,0.25914 -1.0601,0.38156 -0.31193,0.12242 -0.86298,0.37044 -1.2242,0.55073 -0.36122,0.18029 -0.82352,0.42735 -1.0271,0.54882 -0.2035,0.12146 -0.58253,0.36534 -0.84262,0.54182 -0.25979,0.17615 -0.62989,0.44516 -0.82227,0.59745 -0.19237,0.15199 -0.50907,0.4175 -0.704,0.58985 -0.19492,0.17203 -0.48013,0.44516 -0.63405,0.60701 -0.15422,0.16153 -0.3892,0.44071 -0.52243,0.62038 -0.13355,0.17966 -0.31066,0.44072 -0.39333,0.57996 -0.083,0.13959 -0.214,0.37743 -0.29127,0.52879 -0.0773,0.15103 -0.21113,0.45533 -0.29793,0.67569 -0.0865,0.22067 -0.20795,0.57967 -0.26996,0.79841 -0.062,0.21845 -0.14818,0.57618 -0.19142,0.79493 -0.0436,0.21845 -0.10366,0.5978 -0.13386,0.84263 -0.0436,0.35168 -0.056,0.7323 -0.0598,1.8124 -0.003,0.9196 -0.0175,1.435 -0.0436,1.574 -0.0213,0.11352 -0.0677,0.29635 -0.10334,0.40574 -0.0359,0.1097 -0.11956,0.27218 -0.18633,0.3609 -0.0668,0.0887 -0.19364,0.2159 -0.28173,0.28204 -0.0881,0.0661 -0.26646,0.16471 -0.39587,0.21844 -0.12941,0.0541 -0.39142,0.1415 -0.5819,0.19492 -0.19078,0.0531 -0.95071,0.23116 -1.6891,0.39524 l -1.3422,0.29889 -0.32719,0.17489 c -0.17966,0.0963 -0.54151,0.27123 -0.80385,0.38856 -0.26233,0.11732 -0.72018,0.31288 -1.0175,0.43435 -0.2973,0.12178 -0.57361,0.25215 -0.6137,0.28967 -0.0623,0.0582 -0.0779,0.0614 -0.10366,0.0213 -0.0168,-0.0257 -0.18697,-0.36153 -0.37838,-0.74626 -0.19142,-0.38474 -0.44294,-0.92846 -0.55931,-1.2083 -0.11606,-0.27981 -0.30876,-0.80225 -0.42831,-1.1606 -0.11956,-0.35868 -0.2814,-0.90943 -0.35994,-1.2242 -0.0785,-0.3148 -0.1787,-0.78698 -0.2229,-1.0493 -0.0442,-0.26233 -0.10525,-0.69159 -0.13546,-0.95392 -0.0388,-0.33704 -0.055,-0.73322 -0.0557,-1.3514 -6.3e-4,-0.63692 0.0143,-1.0038 0.055,-1.3514 0.0308,-0.26201 0.0849,-0.64836 0.12051,-0.85853 0.0353,-0.20986 0.1202,-0.60351 0.18793,-0.87442 0.068,-0.27123 0.18251,-0.67186 0.25437,-0.89032 0.0719,-0.21876 0.19524,-0.56217 0.27409,-0.76313 0.0789,-0.20128 0.26106,-0.60889 0.40478,-0.90622 0.14372,-0.2973 0.35136,-0.69793 0.4617,-0.89032 0.11033,-0.19237 0.36248,-0.59299 0.56026,-0.89032 0.1981,-0.2973 0.47887,-0.69284 0.62451,-0.87917 0.14531,-0.18633 0.42131,-0.52243 0.61335,-0.74723 0.19174,-0.2248 0.60638,-0.66677 0.92177,-0.98251 0.31512,-0.31543 0.78064,-0.75295 1.034,-0.9717 0.25342,-0.21908 0.59745,-0.50653 0.76439,-0.6388 0.16693,-0.13228 0.52084,-0.39969 0.78635,-0.5946 0.26551,-0.19459 0.73008,-0.51607 1.0322,-0.71446 0.30207,-0.1981 0.72813,-0.46742 0.94659,-0.59808 0.21877,-0.13101 0.60701,-0.35422 0.86327,-0.49604 0.25629,-0.14182 0.64996,-0.35009 0.87443,-0.46233 0.2248,-0.11256 0.64995,-0.31479 0.94499,-0.44961 0.29508,-0.1345 0.7959,-0.34913 1.1129,-0.47696 0.31702,-0.1275 0.87631,-0.3345 1.243,-0.45978 0.36662,-0.12528 0.91765,-0.30017 1.2242,-0.38825 0.30684,-0.0884 0.81529,-0.22258 1.13,-0.29857 0.3148,-0.0757 0.75233,-0.17393 0.97205,-0.21813 0.22003,-0.0442 0.61592,-0.1167 0.88014,-0.16153 0.26423,-0.0445 0.75678,-0.11606 1.0948,-0.15867 0.338,-0.0426 0.8862,-0.0998 1.2185,-0.12719 0.33228,-0.027 0.69731,-0.0537 0.81083,-0.0591 0.11383,-0.005 0.72178,-0.0124 1.3514,-0.0156 z m 17.463,36.826 c 0.004,0.004 -0.0572,0.17139 -0.13642,0.37171 -0.0792,0.2 -0.21304,0.57108 -0.29793,0.82484 -0.0846,0.25342 -0.2051,0.64709 -0.2671,0.87442 -0.0623,0.22735 -0.15613,0.60637 -0.20795,0.84262 -0.0522,0.23594 -0.13101,0.63657 -0.17553,0.89032 -0.0442,0.25343 -0.10906,0.68267 -0.1434,0.95392 -0.0347,0.27091 -0.0849,0.74311 -0.11161,1.0493 -0.0267,0.30589 -0.0652,0.85693 -0.0855,1.2242 -0.0204,0.36726 -0.0385,1.3975 -0.0401,2.2894 -0.002,1.0423 0.0118,1.8035 0.0375,2.1304 0.022,0.27981 0.0747,0.9021 0.11733,1.3832 0.0426,0.48078 0.12082,1.3393 0.17393,1.9078 0.0528,0.56822 0.12432,1.3981 0.15835,1.8442 0.0343,0.44579 0.0788,1.1431 0.0992,1.5495 0.0226,0.44897 0.0308,1.2474 0.021,2.035 -0.0112,0.89192 -0.0324,1.4401 -0.068,1.7574 -0.0286,0.25342 -0.0814,0.64486 -0.11733,0.86967 -0.0359,0.22481 -0.11288,0.59746 -0.17107,0.82833 -0.0582,0.23085 -0.15867,0.56218 -0.22322,0.73608 -0.0645,0.17393 -0.20222,0.48077 -0.30556,0.68204 -0.13037,0.25342 -0.21527,0.38125 -0.27696,0.41654 -0.0489,0.0277 -0.23021,0.2194 -0.40319,0.42545 -0.17265,0.20636 -0.52433,0.59843 -0.78092,0.87156 -0.25692,0.27282 -0.95866,0.98285 -1.5599,1.5774 -0.60095,0.59494 -1.2585,1.2674 -1.4611,1.4945 -0.20255,0.22734 -0.57108,0.65344 -0.81878,0.94722 l -0.45056,0.53356 v -0.10811 c 0,-0.0595 0.0359,-0.5501 0.0798,-1.09 0.0436,-0.54023 0.19396,-2.2414 0.33355,-3.7804 0.13959,-1.539 0.28999,-3.2258 0.33355,-3.7489 0.0439,-0.52275 0.0798,-0.96375 0.0798,-0.98 0,-0.0162 0.0379,3.2e-4 0.0836,0.0366 0.0461,0.0363 0.13005,0.0658 0.18601,0.0658 0.0633,0 0.15263,-0.0365 0.23435,-0.0954 0.0725,-0.0528 0.34277,-0.27314 0.60094,-0.48968 0.25788,-0.21686 0.74089,-0.64166 1.0732,-0.94374 0.33228,-0.30238 0.79716,-0.7148 1.0334,-0.91702 0.23626,-0.20223 0.52592,-0.46615 0.64424,-0.58636 0.11796,-0.12051 0.28013,-0.31765 0.35994,-0.43753 0.0798,-0.12019 0.17266,-0.29635 0.20605,-0.3911 0.0334,-0.0951 0.0696,-0.24898 0.0804,-0.34214 0.0112,-0.0944 0.004,-0.22767 -0.0159,-0.30208 -0.0206,-0.0766 -0.075,-0.16566 -0.12846,-0.21049 -0.0518,-0.0436 -0.1558,-0.0874 -0.23625,-0.0995 -0.0789,-0.0118 -0.23371,-0.005 -0.34405,0.0143 -0.11002,0.0197 -0.30048,0.0836 -0.4229,0.14245 -0.12242,0.0588 -0.34373,0.20446 -0.49222,0.3237 -0.15676,0.12623 -0.5539,0.52942 -0.94945,0.96409 -0.37394,0.41082 -0.77206,0.86173 -0.8846,1.0016 -0.11256,0.13991 -0.29317,0.38316 -0.40128,0.54055 -0.10811,0.1574 -0.28077,0.45057 -0.38379,0.65185 l -0.18729,0.36566 0.0191,-0.20668 c 0.0102,-0.11383 0.028,-0.52147 0.0394,-0.90622 0.0114,-0.39842 0.005,-1.0554 -0.0165,-1.5263 -0.0204,-0.4547 -0.0645,-1.1702 -0.0983,-1.5899 -0.0334,-0.41972 -0.0967,-1.1854 -0.14054,-1.7012 -0.0436,-0.51606 -0.096,-1.2134 -0.11637,-1.5501 -0.0222,-0.3698 -0.0302,-1.0178 -0.0204,-1.6376 0.0108,-0.66454 0.0353,-1.1765 0.0696,-1.4547 0.0292,-0.23625 0.0878,-0.61718 0.13005,-0.84709 0.0423,-0.22958 0.12655,-0.60889 0.18696,-0.84262 0.0604,-0.23371 0.16916,-0.59654 0.24166,-0.80637 0.0725,-0.20986 0.17934,-0.49603 0.23753,-0.63594 0.0585,-0.13991 0.14372,-0.33864 0.18982,-0.44198 l 0.0839,-0.18728 0.0477,0.0684 c 0.0264,0.0375 0.0913,0.0906 0.14372,0.11797 0.0563,0.0289 0.131,0.0416 0.18124,0.0308 0.0467,-0.0105 0.18538,-0.10779 0.30812,-0.21686 0.12273,-0.10874 0.53037,-0.46264 0.90587,-0.786 0.37552,-0.3237 0.8528,-0.75295 1.0607,-0.95392 0.20764,-0.20127 0.48587,-0.49444 0.61816,-0.65184 0.13196,-0.15739 0.30907,-0.39174 0.39333,-0.52084 0.0948,-0.14467 0.15326,-0.26995 0.15326,-0.32751 0,-0.0509 -0.0216,-0.13482 -0.0483,-0.18601 -0.0264,-0.0515 -0.0928,-0.11638 -0.14754,-0.14468 -0.0633,-0.0327 -0.13482,-0.0442 -0.1981,-0.0318 -0.0544,0.0108 -0.24197,0.0894 -0.41686,0.17489 -0.17488,0.0852 -0.43817,0.24102 -0.58539,0.34627 -0.1469,0.10525 -0.39555,0.3097 -0.55263,0.45438 -0.15708,0.14499 -0.40891,0.40764 -0.55931,0.58413 -0.15072,0.17647 -0.31416,0.37043 -0.36312,0.43117 -0.0487,0.0607 -0.0146,-0.003 0.076,-0.14086 0.0903,-0.138 0.3113,-0.4458 0.49063,-0.68364 0.17934,-0.23785 0.4442,-0.56854 0.58859,-0.73454 0.14436,-0.1663 0.4194,-0.46996 0.61147,-0.67506 0.19205,-0.20541 0.56567,-0.57235 0.83021,-0.81557 0.26455,-0.24325 0.63846,-0.57744 0.83084,-0.74249 0.19238,-0.16503 0.59271,-0.49477 0.8897,-0.73259 0.29698,-0.23785 0.54341,-0.42894 0.54786,-0.42482 z m -21.718,-40.835 c -0.1946,0.003 -0.47759,0.0156 -0.62897,0.0289 -0.15167,0.0134 -0.39396,0.0553 -0.53896,0.0928 -0.14468,0.0375 -0.3857,0.1186 -0.53546,0.17997 -0.14945,0.0617 -0.44961,0.20446 -0.66648,0.31734 -0.21718,0.11288 -0.50685,0.27154 -0.6439,0.35327 -0.13672,0.0814 -0.36948,0.24516 -0.51733,0.36408 -0.14754,0.11891 -0.35168,0.31511 -0.45343,0.43625 -0.10143,0.12115 -0.23212,0.29889 -0.29031,0.39524 -0.0582,0.0963 -0.14277,0.28014 -0.18824,0.40859 -0.0582,0.16344 -0.0868,0.32052 -0.097,0.52593 l -0.0143,0.29285 0.097,0.0967 c 0.0531,0.0531 0.1202,0.0967 0.14881,0.0967 0.0286,0 0.083,-0.0165 0.12051,-0.0366 0.0378,-0.0204 0.19587,-0.12878 0.35136,-0.24134 0.15581,-0.11256 0.51384,-0.35835 0.79619,-0.54628 0.28204,-0.1876 0.67757,-0.4423 0.87854,-0.56567 0.20127,-0.12337 0.57995,-0.34913 0.84199,-0.50207 0.26201,-0.15295 0.77205,-0.44198 1.1339,-0.64201 0.36153,-0.20032 0.68141,-0.39047 0.71069,-0.4229 0.0296,-0.0324 0.0611,-0.11701 0.0706,-0.18792 0.01,-0.0731 0,-0.17139 -0.0229,-0.2264 -0.0219,-0.0531 -0.076,-0.12496 -0.11956,-0.1593 -0.069,-0.0544 -0.1256,-0.062 -0.43277,-0.0582 z m 18.979,0.52625 c -0.035,-0.009 -0.15071,0.003 -0.25723,0.0254 -0.10653,0.0232 -0.30335,0.0878 -0.43786,0.14341 -0.13418,0.056 -0.37615,0.18125 -0.53737,0.27855 -0.16152,0.0973 -0.42258,0.27091 -0.57995,0.3857 -0.1574,0.11479 -0.44135,0.32878 -0.6312,0.47569 -0.18951,0.1469 -0.43912,0.35485 -0.55454,0.46169 -0.11511,0.10715 -0.26042,0.25056 -0.32274,0.31829 -0.0623,0.068 -0.16344,0.19015 -0.22481,0.27155 -0.0617,0.0814 -0.16535,0.2496 -0.23053,0.37393 -0.0655,0.12433 -0.11892,0.25565 -0.11892,0.2919 0,0.0359 0.0312,0.0948 0.0696,0.13037 0.0381,0.0356 0.11098,0.0649 0.16154,0.0649 0.0626,0 0.29539,-0.12782 0.73322,-0.40318 0.35262,-0.22163 1.0273,-0.64487 1.4989,-0.94054 0.47156,-0.29603 0.94786,-0.60986 1.0585,-0.69793 0.11065,-0.0881 0.26391,-0.23689 0.34054,-0.33133 0.077,-0.0941 0.17711,-0.25056 0.22322,-0.34786 0.0735,-0.15548 0.0792,-0.18951 0.0471,-0.28713 -0.02,-0.0607 -0.0674,-0.12973 -0.10524,-0.15358 -0.0379,-0.0238 -0.0973,-0.0505 -0.13228,-0.0598 z m 2.2401,2.2178 c -0.0703,-0.01 -0.18506,0.0115 -0.31924,0.0598 -0.11511,0.0416 -0.31543,0.14372 -0.44516,0.22735 -0.12942,0.0836 -0.33864,0.25755 -0.46456,0.38665 -0.12592,0.12942 -0.33006,0.38634 -0.45374,0.57108 -0.1237,0.18475 -0.30303,0.4954 -0.39906,0.69033 -0.0957,0.19492 -0.17425,0.38379 -0.17425,0.41972 0,0.0359 0.0222,0.0973 0.0496,0.1361 0.0315,0.0451 0.0824,0.0706 0.14118,0.0706 0.077,0 0.1202,-0.0378 0.26551,-0.23053 0.0957,-0.12687 0.27886,-0.33196 0.40732,-0.45566 0.12846,-0.12369 0.49095,-0.41686 0.80574,-0.65087 0.31479,-0.23434 0.64961,-0.50048 0.74374,-0.59173 l 0.17139,-0.16598 -0.0181,-0.13419 c -0.0118,-0.089 -0.0487,-0.16471 -0.10939,-0.22544 -0.0522,-0.0521 -0.138,-0.0979 -0.20096,-0.10715 z m 4.0875,1.4588 c -0.23561,-0.007 -0.36884,0.006 -0.51384,0.0487 -0.10779,0.0318 -0.31415,0.11797 -0.45883,0.1911 -0.14467,0.0734 -0.37679,0.21559 -0.51607,0.31543 -0.13895,0.10016 -0.36948,0.28204 -0.51193,0.40445 -0.14245,0.12242 -0.31734,0.28681 -0.3892,0.36567 -0.0715,0.0785 -0.17552,0.21463 -0.23053,0.30207 -0.0553,0.0875 -0.12878,0.24993 -0.16312,0.36122 -0.041,0.13292 -0.0623,0.29349 -0.0623,0.47028 0,0.14754 0.0226,0.37807 0.0506,0.51257 0.0277,0.1345 0.0639,0.26964 0.0804,0.30048 0.0162,0.0308 0.0642,0.0645 0.10621,0.075 0.042,0.0105 0.10493,0.0102 0.13991,-9.8e-4 0.0346,-0.0111 0.0916,-0.0684 0.12623,-0.12686 0.0499,-0.0843 0.0906,-0.11129 0.1946,-0.12878 0.0722,-0.0121 0.19873,-0.0684 0.28108,-0.12497 0.0824,-0.0563 0.31225,-0.21972 0.51099,-0.36312 0.19841,-0.14309 0.46328,-0.30907 0.58824,-0.36853 0.12496,-0.0598 0.40605,-0.17552 0.62451,-0.25755 0.21876,-0.0824 0.49477,-0.2 0.61335,-0.26169 0.12529,-0.0652 0.26933,-0.17266 0.34246,-0.25597 0.0788,-0.0894 0.14563,-0.20954 0.17711,-0.31797 0.0331,-0.11352 0.0439,-0.22608 0.0308,-0.32083 -0.0108,-0.0804 -0.056,-0.22036 -0.10016,-0.31098 -0.0442,-0.0906 -0.13292,-0.21082 -0.19683,-0.2671 -0.0639,-0.056 -0.18156,-0.13132 -0.26105,-0.16725 -0.10843,-0.049 -0.22449,-0.0677 -0.46265,-0.0744 z m 4.4732,4.1571 c -0.15867,9.7e-4 -0.36376,0.0258 -0.48268,0.0582 -0.11351,0.0308 -0.276,0.0871 -0.36058,0.12464 -0.0849,0.0378 -0.25342,0.13482 -0.37489,0.21559 -0.12146,0.0805 -0.33196,0.25883 -0.46805,0.39555 -0.13609,0.13705 -0.34309,0.38252 -0.4601,0.54532 -0.11702,0.16313 -0.31989,0.50939 -0.45121,0.76948 -0.131,0.26011 -0.23816,0.50113 -0.23816,0.53579 0,0.0343 0.0487,0.11129 0.10811,0.17075 0.0836,0.0836 0.13451,0.10811 0.22449,0.10811 h 0.1167 l 0.37775,-0.36345 c 0.20763,-0.19968 0.51098,-0.46646 0.6738,-0.5927 0.16249,-0.12592 0.54469,-0.3927 0.84869,-0.59237 0.3043,-0.19937 0.64549,-0.45152 0.75838,-0.55995 0.1132,-0.10811 0.22545,-0.23562 0.24993,-0.28267 0.0245,-0.0474 0.0445,-0.12592 0.0445,-0.17489 -3.2e-4,-0.049 -0.0289,-0.13577 -0.0636,-0.19301 -0.035,-0.0575 -0.10048,-0.11828 -0.14531,-0.13513 -0.0448,-0.0172 -0.20573,-0.0302 -0.35772,-0.0293 z m 1.6954,3.5635 c -0.12242,9.7e-4 -0.30112,0.0229 -0.39746,0.049 -0.096,0.0258 -0.28936,0.10079 -0.42926,0.1663 -0.13991,0.0655 -0.46901,0.2531 -0.73134,0.41686 -0.26232,0.16375 -0.57995,0.37457 -0.70623,0.46837 -0.12591,0.0941 -0.29539,0.24452 -0.37647,0.33483 -0.0811,0.09 -0.18761,0.24325 -0.23657,0.34086 -0.0493,0.0973 -0.10557,0.23721 -0.1256,0.31098 -0.0264,0.0983 -0.0267,0.15167 -10e-4,0.19969 0.0191,0.0362 0.0661,0.0776 0.10461,0.0925 0.0445,0.0172 0.0922,0.0127 0.13291,-0.0127 0.035,-0.0219 0.18092,-0.0493 0.32465,-0.0614 0.1434,-0.0118 0.35772,-0.0512 0.47568,-0.0874 0.11797,-0.0366 0.33674,-0.12369 0.48618,-0.19364 0.14945,-0.07 0.47728,-0.21877 0.72882,-0.33037 0.25152,-0.11161 0.5485,-0.25375 0.65945,-0.31575 0.11129,-0.0623 0.28776,-0.19205 0.39206,-0.28904 0.11447,-0.10588 0.22385,-0.24515 0.27568,-0.35072 0.0496,-0.10175 0.0868,-0.23307 0.0887,-0.31352 0.002,-0.0935 -0.0185,-0.16694 -0.0633,-0.22799 -0.0391,-0.0528 -0.13037,-0.11192 -0.22258,-0.14404 -0.0922,-0.0318 -0.2477,-0.0534 -0.37902,-0.0528 z m 1.7488,12.988 c -0.10875,-0.009 -0.26074,10e-4 -0.35359,0.0248 -0.0894,0.0226 -0.23244,0.0817 -0.31797,0.13164 -0.0852,0.0496 -0.23371,0.17171 -0.33005,0.27123 -0.096,0.0995 -0.23498,0.28681 -0.30844,0.41591 -0.0734,0.12941 -0.17647,0.36376 -0.22862,0.52115 -0.0521,0.1574 -0.11161,0.41241 -0.13195,0.56663 -0.0204,0.15421 -0.0277,0.34373 -0.0159,0.42099 0.0118,0.0801 0.0563,0.18283 0.10238,0.23752 0.0448,0.0531 0.12179,0.11765 0.17139,0.14341 0.0496,0.0254 0.15549,0.0464 0.2353,0.0464 h 0.14531 l 0.38029,-0.35232 c 0.20923,-0.19364 0.483,-0.46869 0.60861,-0.61083 0.1256,-0.14246 0.28967,-0.35391 0.36503,-0.47028 0.0754,-0.11638 0.16821,-0.2884 0.20605,-0.38284 0.0471,-0.11574 0.0706,-0.24484 0.0728,-0.39905 0.003,-0.18316 -0.009,-0.24579 -0.0617,-0.31797 -0.0359,-0.0496 -0.1291,-0.12147 -0.20668,-0.15994 -0.0779,-0.0385 -0.22735,-0.0773 -0.33228,-0.0865 z m -13.394,21.127 c -0.0658,3.2e-4 -0.22894,0.0483 -0.36281,0.10653 -0.13354,0.0585 -0.31956,0.15326 -0.41336,0.21081 -0.0935,0.0576 -0.25597,0.17012 -0.3609,0.25024 -0.10493,0.0801 -0.33228,0.28204 -0.50525,0.44866 -0.17298,0.16662 -0.52974,0.53197 -0.7927,0.8118 -0.26265,0.27981 -0.5803,0.63754 -0.70526,0.79493 -0.12496,0.15739 -0.32783,0.43625 -0.45088,0.62004 -0.12273,0.18347 -0.30525,0.47569 -0.40541,0.64933 -0.10017,0.17329 -0.26519,0.48141 -0.36726,0.68461 -0.10175,0.2035 -0.18824,0.39778 -0.19205,0.43212 -0.003,0.0343 -0.005,0.0957 -0.003,0.13641 0.002,0.0407 0.0458,0.11574 0.0967,0.16694 0.0569,0.0566 0.12655,0.0928 0.17869,0.0928 0.0693,0 0.21369,-0.12941 0.75776,-0.67889 0.36948,-0.37362 1.1011,-1.0849 1.6258,-1.5806 0.52466,-0.49571 1.0958,-1.0452 1.2694,-1.2207 0.1733,-0.17584 0.40097,-0.43403 0.50526,-0.57395 0.10461,-0.13991 0.25469,-0.38729 0.33355,-0.54977 0.10112,-0.20859 0.14436,-0.33769 0.14659,-0.43976 0.002,-0.12751 -0.0108,-0.15644 -0.11606,-0.2531 -0.0916,-0.084 -0.14595,-0.10875 -0.23848,-0.10844 z m -0.4423,3.373 c -0.0849,0.002 -0.22512,0.0222 -0.31161,0.0461 -0.0868,0.0235 -0.25851,0.0932 -0.38157,0.15422 -0.12337,0.061 -0.31924,0.18983 -0.43562,0.28586 -0.11638,0.0964 -0.30112,0.27886 -0.41018,0.40573 -0.10938,0.12687 -0.28395,0.36026 -0.38825,0.51861 -0.10397,0.15835 -0.29317,0.49508 -0.41972,0.74884 -0.12687,0.25342 -0.30366,0.64131 -0.39301,0.86138 -0.089,0.22035 -0.23434,0.61655 -0.32242,0.88048 -0.0881,0.26392 -0.16026,0.52179 -0.16026,0.57269 0,0.0509 0.0324,0.14119 0.0722,0.20065 0.0397,0.0595 0.1221,0.13386 0.18283,0.16566 0.0785,0.0407 0.15931,0.0538 0.27886,0.0448 0.1008,-0.007 0.20287,-0.0379 0.25438,-0.0754 0.0473,-0.0347 0.12433,-0.14054 0.17075,-0.23562 0.0464,-0.0951 0.22099,-0.45215 0.38793,-0.79304 0.16693,-0.34119 0.42703,-0.81306 0.57772,-1.0487 0.15072,-0.23561 0.35454,-0.5291 0.45311,-0.65184 0.0983,-0.12273 0.29508,-0.35931 0.43689,-0.52529 0.14182,-0.1663 0.32211,-0.38792 0.40065,-0.49285 0.0789,-0.10493 0.18697,-0.26296 0.24039,-0.35136 0.0534,-0.0884 0.10779,-0.19364 0.12051,-0.23339 0.0124,-0.0401 0.014,-0.12051 0.003,-0.17902 -0.0108,-0.0582 -0.0607,-0.15008 -0.11097,-0.20382 -0.0789,-0.0843 -0.11256,-0.0973 -0.24547,-0.0948 z m 0.67632,4.513 c -0.0575,3.2e-4 -0.2372,0.0735 -0.42767,0.17362 -0.18029,0.0948 -0.44103,0.25406 -0.57904,0.35326 -0.13801,0.0995 -0.39811,0.3132 -0.57807,0.47505 -0.17965,0.16154 -0.46265,0.44771 -0.62897,0.63532 -0.16598,0.18792 -0.42035,0.49349 -0.56503,0.67918 -0.14468,0.18601 -0.37235,0.49476 -0.50589,0.68649 -0.13355,0.19206 -0.25693,0.39492 -0.27442,0.4512 -0.0226,0.0738 -0.02,0.13005 0.009,0.20065 0.0226,0.054 0.0817,0.1275 0.13164,0.16311 0.0499,0.0356 0.13927,0.0725 0.19842,0.082 0.0677,0.0111 0.14944,-0.002 0.22099,-0.0365 0.0719,-0.034 0.18124,-0.14405 0.29603,-0.29762 0.10016,-0.13387 0.29253,-0.37235 0.42767,-0.52975 0.13514,-0.15739 0.44389,-0.48013 0.68615,-0.71732 0.2423,-0.23689 0.65505,-0.6038 0.91737,-0.81529 0.26233,-0.21145 0.56504,-0.47536 0.67283,-0.58636 0.10779,-0.11129 0.23276,-0.25787 0.27823,-0.32592 0.0452,-0.068 0.0824,-0.15803 0.0824,-0.20032 0,-0.042 -0.0213,-0.11765 -0.0471,-0.16758 -0.0257,-0.0502 -0.0849,-0.12082 -0.13132,-0.15739 -0.0467,-0.0365 -0.12909,-0.0661 -0.18347,-0.0658 z m -0.91005,7.1235 c -0.0261,0 -0.14277,0.0407 -0.25883,0.0903 -0.11606,0.0493 -0.30207,0.14468 -0.41336,0.21145 -0.11129,0.0668 -0.30939,0.20065 -0.44071,0.29731 -0.131,0.097 -0.39683,0.33387 -0.59048,0.52688 -0.19365,0.19301 -0.45979,0.48713 -0.59111,0.6531 -0.13163,0.16598 -0.33895,0.45215 -0.46105,0.63594 -0.12178,0.18379 -0.25184,0.38379 -0.2884,0.44516 -0.0366,0.061 -0.14055,0.24739 -0.23085,0.41337 -0.0906,0.16598 -0.23498,0.45724 -0.32083,0.64675 -0.0862,0.18951 -0.15644,0.36567 -0.15644,0.3911 0,0.0254 0.0216,0.0884 0.0483,0.1396 0.0264,0.0515 0.09,0.1151 0.1415,0.14149 0.0512,0.0267 0.14372,0.0483 0.20541,0.0483 0.0795,0 0.13927,-0.0257 0.2035,-0.0874 0.0499,-0.048 0.21845,-0.23689 0.37425,-0.41941 0.15549,-0.18283 0.50494,-0.5555 0.77583,-0.82861 0.27123,-0.27282 0.79619,-0.78572 1.1669,-1.1393 0.38093,-0.36344 0.75839,-0.75518 0.86808,-0.90113 0.10684,-0.1415 0.24357,-0.35549 0.30398,-0.47505 0.0652,-0.12942 0.10938,-0.26455 0.10938,-0.33387 0,-0.0639 -0.0308,-0.16598 -0.0684,-0.22703 -0.0401,-0.0642 -0.12338,-0.13578 -0.19874,-0.17012 -0.0719,-0.0324 -0.15199,-0.0588 -0.17806,-0.0588 z m -0.002,1.938 c -0.0582,0 -0.16471,0.0569 -0.30589,0.16312 -0.11892,0.0897 -0.33419,0.26264 -0.47822,0.38474 -0.14405,0.12179 -0.40192,0.36821 -0.57332,0.54787 -0.17139,0.17933 -0.41973,0.46773 -0.55232,0.64069 -0.13228,0.17297 -0.36885,0.50748 -0.52624,0.74374 -0.15708,0.23594 -0.38666,0.59494 -0.51003,0.79779 -0.12369,0.20255 -0.43149,0.72499 -0.68427,1.1606 -0.25279,0.43562 -0.48332,0.83787 -0.51193,0.89381 -0.0289,0.056 -0.0525,0.13895 -0.0525,0.18442 0,0.0455 0.0216,0.12464 0.0483,0.17584 0.0264,0.0515 0.09,0.1151 0.1415,0.1415 0.0512,0.0267 0.14531,0.0483 0.2089,0.0483 0.0989,0 0.14055,-0.0261 0.29159,-0.18283 0.097,-0.10048 0.36661,-0.39747 0.5994,-0.65979 0.23275,-0.26233 0.57583,-0.663 0.76216,-0.89032 0.18632,-0.22735 0.48617,-0.60798 0.66585,-0.84612 0.17965,-0.23784 0.4919,-0.68141 0.69382,-0.98571 0.20191,-0.30398 0.48331,-0.75644 0.62547,-1.0054 0.14182,-0.24897 0.30971,-0.5609 0.37267,-0.69348 l 0.11447,-0.24102 -0.0369,-0.12369 c -0.0204,-0.0677 -0.0744,-0.15295 -0.1202,-0.18888 -0.0455,-0.0359 -0.12336,-0.0652 -0.17234,-0.0652 z m -4.6717,14.261 c -0.56822,-0.006 -1.2051,0.002 -1.415,0.0181 -0.20986,0.0159 -0.5819,0.0582 -0.82672,0.0944 -0.24484,0.0363 -0.60764,0.10779 -0.80637,0.1593 -0.19873,0.0515 -0.50303,0.1504 -0.67597,0.21972 -0.1733,0.0696 -0.4121,0.18316 -0.53134,0.25279 -0.11892,0.0696 -0.30366,0.19205 -0.40986,0.27186 -0.10652,0.0801 -0.27632,0.23467 -0.37743,0.34373 -0.1008,0.10906 -0.24897,0.29858 -0.32879,0.42132 -0.0798,0.12241 -0.17138,0.28108 -0.2035,0.3523 l -0.0579,0.12974 -0.35549,0.13705 c -0.19523,0.0754 -0.54119,0.22576 -0.76851,0.33418 -0.22735,0.10811 -0.60638,0.30812 -0.84262,0.44453 -0.23594,0.13609 -0.60798,0.36439 -0.82673,0.50748 -0.21844,0.14309 -0.61209,0.42227 -0.87442,0.62039 -0.26233,0.19809 -0.66808,0.52529 -0.90176,0.72721 -0.23371,0.20223 -0.62004,0.56217 -0.85852,0.80065 -0.23848,0.23817 -0.55677,0.57555 -0.70749,0.74947 -0.1504,0.17392 -0.38411,0.45787 -0.51925,0.63148 -0.13514,0.17361 -0.3663,0.49794 -0.51384,0.72115 -0.18824,0.28459 -0.3132,0.4388 -0.41877,0.51639 -0.0827,0.0607 -0.25215,0.21558 -0.37648,0.34405 -0.12432,0.12845 -0.29253,0.33609 -0.37361,0.46169 -0.0811,0.12528 -0.19015,0.33418 -0.24198,0.46424 -0.0521,0.12973 -0.11638,0.31892 -0.14277,0.42003 -0.0261,0.10112 -0.0642,0.30717 -0.0843,0.45788 -0.0213,0.15772 -0.0292,0.43562 -0.0191,0.65596 0.01,0.21145 0.0547,0.56281 0.10016,0.78733 0.0451,0.22321 0.12656,0.54468 0.18093,0.71509 0.0544,0.17011 0.15548,0.45247 0.2248,0.62736 0.0693,0.17489 0.20986,0.48968 0.31257,0.69954 0.10238,0.20986 0.28808,0.55867 0.41241,0.77554 0.12433,0.21654 0.3558,0.58859 0.51448,0.82673 0.15835,0.23784 0.41145,0.59717 0.56217,0.79841 0.15072,0.20096 0.41114,0.53006 0.57841,0.73134 0.16726,0.20096 0.47092,0.54659 0.67506,0.76788 0.20382,0.22131 0.53992,0.55772 0.74661,0.74723 0.20668,0.18983 0.48967,0.43689 0.62896,0.54914 0.13927,0.11224 0.41114,0.30843 0.60415,0.43562 0.19332,0.12719 0.52942,0.32433 0.74723,0.43816 0.21781,0.11352 0.58951,0.28427 0.82547,0.37902 0.23625,0.0944 0.55295,0.20987 0.70428,0.25597 0.15136,0.0461 0.45184,0.1256 0.66774,0.1768 0.2159,0.0512 0.5431,0.11542 0.72659,0.14308 0.18379,0.0273 0.49127,0.0642 0.68364,0.0817 0.19237,0.0175 0.52879,0.0318 0.74723,0.0318 0.21877,0 0.55486,-0.0146 0.74723,-0.0324 0.19238,-0.0175 0.52879,-0.062 0.74724,-0.0983 0.21876,-0.0365 0.56917,-0.11541 0.77903,-0.17583 0.20986,-0.0604 0.54627,-0.17488 0.74723,-0.25438 0.20128,-0.0798 0.48745,-0.2105 0.63594,-0.29063 0.14882,-0.0801 0.37044,-0.20922 0.49286,-0.2868 0.12242,-0.0779 0.35263,-0.24548 0.5113,-0.37267 0.15898,-0.12718 0.42068,-0.37234 0.58127,-0.54468 0.16089,-0.17234 0.3841,-0.44166 0.49603,-0.59877 0.11193,-0.15708 0.29985,-0.47187 0.4175,-0.69954 0.11733,-0.22766 0.414,-0.74312 0.65882,-1.1453 0.24483,-0.40223 1.0779,-1.7403 1.8516,-2.973 0.77331,-1.2331 1.641,-2.6204 1.9276,-3.0831 l 0.52147,-0.84136 0.11892,-0.004 c 0.0716,-0.002 0.24103,-0.0645 0.42449,-0.15548 0.22576,-0.11225 0.35677,-0.20319 0.50335,-0.34977 0.12242,-0.12242 0.23626,-0.27632 0.29762,-0.40223 0.0547,-0.11225 0.12274,-0.29667 0.15136,-0.41019 0.0407,-0.16089 0.0487,-0.30176 0.0363,-0.63594 -0.0127,-0.338 -0.0369,-0.50875 -0.11256,-0.80162 -0.0531,-0.20446 -0.16408,-0.54087 -0.24643,-0.74723 -0.0823,-0.20636 -0.24102,-0.55772 -0.35263,-0.78063 -0.11129,-0.2229 -0.29762,-0.56631 -0.41368,-0.76314 -0.11638,-0.19682 -0.33991,-0.55104 -0.49667,-0.78698 -0.15708,-0.23625 -0.44644,-0.64389 -0.64292,-0.90621 -0.19683,-0.26233 -0.4989,-0.64104 -0.67186,-0.84137 -0.17266,-0.20032 -0.44739,-0.48141 -0.60987,-0.62416 -0.1628,-0.14309 -0.41908,-0.34278 -0.5698,-0.44421 -0.15072,-0.10143 -0.41813,-0.25946 -0.59459,-0.35168 -0.17648,-0.0922 -0.45152,-0.21781 -0.61147,-0.27981 -0.15962,-0.0617 -0.41718,-0.14881 -0.57201,-0.19396 -0.15485,-0.0448 -0.4547,-0.1167 -0.66613,-0.15931 -0.21114,-0.043 -0.57619,-0.1008 -0.81083,-0.12909 -0.28364,-0.0337 -0.77268,-0.0544 -1.4598,-0.0611 z m -0.0795,1.145 c 0.36726,0.006 0.79653,0.0273 0.95392,0.0471 0.15739,0.0197 0.30748,0.043 0.33355,0.0518 0.0296,0.0102 -0.0248,0.0547 -0.14754,0.12018 -0.10684,0.0572 -0.26391,0.15518 -0.34913,0.21813 -0.0852,0.0626 -0.30621,0.26901 -0.49158,0.45852 -0.18507,0.18951 -0.52021,0.56599 -0.74501,0.83725 -0.2248,0.27091 -0.50812,0.62702 -0.63022,0.79109 -0.12178,0.16439 -0.32751,0.46456 -0.45724,0.6674 -0.12974,0.20287 -0.3361,0.552 -0.45884,0.77617 -0.12274,0.22385 -0.31765,0.61782 -0.43276,0.87477 -0.15422,0.34468 -0.21304,0.5148 -0.22321,0.64709 l -0.014,0.17934 0.1256,0.1256 c 0.083,0.083 0.17489,0.138 0.27091,0.16217 0.0801,0.0203 0.19333,0.0277 0.25152,0.0169 0.0585,-0.0108 0.14913,-0.0458 0.20159,-0.0773 0.0649,-0.0391 0.22226,-0.26392 0.49222,-0.70337 0.21813,-0.35518 0.52402,-0.83914 0.67953,-1.075 0.1558,-0.23626 0.42481,-0.61845 0.59808,-0.84995 0.17329,-0.23148 0.39682,-0.50939 0.49698,-0.61752 0.0999,-0.10779 0.428,-0.40224 0.72911,-0.65408 0.30112,-0.25151 0.62736,-0.54627 0.72464,-0.6547 0.0973,-0.10811 0.23435,-0.31129 0.3043,-0.45152 0.0808,-0.16121 0.12941,-0.30397 0.13291,-0.38951 0.003,-0.0741 0.0153,-0.13482 0.0277,-0.13482 0.0124,0 0.14881,0.0442 0.30334,0.0983 0.15454,0.054 0.42386,0.16726 0.59877,0.25152 0.17489,0.0846 0.44675,0.23466 0.60415,0.33387 0.1574,0.0992 0.41559,0.28554 0.57395,0.414 0.15803,0.12846 0.4016,0.35263 0.54055,0.49794 0.13927,0.14563 0.37553,0.41463 0.52465,0.59843 0.14945,0.18347 0.34659,0.43657 0.43817,0.56185 0.0916,0.12529 0.28172,0.41146 0.42227,0.63595 0.14054,0.22449 0.3469,0.59459 0.45883,0.8226 0.11161,0.22831 0.26042,0.58602 0.33005,0.79493 0.07,0.20923 0.14913,0.50749 0.17616,0.66265 0.0271,0.15549 0.0474,0.40573 0.0452,0.55645 -0.002,0.15072 -0.013,0.31702 -0.0242,0.36949 l -0.0206,0.0954 -0.21208,-0.0111 c -0.1167,-0.006 -0.26042,0.005 -0.31956,0.0245 -0.0592,0.0194 -0.15835,0.0887 -0.22099,0.15422 -0.0623,0.0652 -0.42767,0.66236 -0.81209,1.3269 -0.38411,0.66454 -0.90336,1.566 -1.1536,2.0032 -0.25024,0.43721 -0.68838,1.2086 -0.97364,1.7142 -0.28491,0.50557 -0.52465,0.89924 -0.5326,0.87442 -0.008,-0.0248 -0.0236,-0.138 -0.0347,-0.25152 -0.0114,-0.11383 -0.0483,-0.33546 -0.082,-0.49285 -0.034,-0.1574 -0.11478,-0.45089 -0.17997,-0.65185 -0.0652,-0.20127 -0.22862,-0.58761 -0.36344,-0.85852 -0.1345,-0.27123 -0.34023,-0.63594 -0.45724,-0.81083 -0.1167,-0.17488 -0.3202,-0.45406 -0.45248,-0.62004 -0.13227,-0.1663 -0.4566,-0.51734 -0.72018,-0.78063 -0.26392,-0.26296 -0.66202,-0.62291 -0.88426,-0.80002 -0.22258,-0.17679 -0.60889,-0.45724 -0.85852,-0.62325 -0.24993,-0.16598 -0.64006,-0.40573 -0.86745,-0.53323 -0.22735,-0.12719 -0.5994,-0.31988 -0.82672,-0.42799 -0.22735,-0.10843 -0.593,-0.26964 -0.81272,-0.35836 -0.21971,-0.089 -0.5978,-0.22735 -0.84039,-0.30748 -0.24261,-0.0801 -0.5994,-0.18697 -0.79304,-0.2372 -0.19365,-0.0499 -0.47537,-0.11575 -0.6264,-0.14563 l -0.27409,-0.054 0.27409,-0.13895 c 0.15104,-0.076 0.37458,-0.21399 0.497,-0.30589 0.12241,-0.0922 0.50907,-0.44675 0.85915,-0.78795 0.34977,-0.34119 0.77205,-0.74249 0.93801,-0.89192 0.16567,-0.14914 0.38729,-0.34405 0.49222,-0.43309 0.10494,-0.0887 0.29826,-0.22957 0.42927,-0.31288 0.13132,-0.0833 0.31352,-0.22989 0.40541,-0.32592 0.13768,-0.14372 0.16693,-0.19396 0.16693,-0.28776 0,-0.0623 -0.0289,-0.17298 -0.0642,-0.24611 -0.0381,-0.0789 -0.10652,-0.15517 -0.16948,-0.18919 -0.0779,-0.042 -0.15136,-0.0531 -0.28109,-0.0423 -0.11161,0.009 -0.26328,0.0563 -0.41686,0.12909 -0.13259,0.063 -0.32465,0.17139 -0.42672,0.24071 -0.10207,0.0693 -0.32115,0.24484 -0.48682,0.39015 -0.16565,0.14531 -0.4655,0.41972 -0.66676,0.60952 -0.20096,0.19015 -0.54977,0.54119 -0.77457,0.78092 -0.22512,0.23942 -0.55963,0.61398 -0.7434,0.83278 -0.18411,0.21845 -0.35486,0.44517 -0.37967,0.50367 -0.0353,0.0833 -0.0375,0.1291 -0.01,0.214 0.0197,0.0595 0.0738,0.138 0.1205,0.17457 l 0.0846,0.0668 -0.0792,-0.0178 c -0.0432,-0.01 -0.19332,-0.0328 -0.33323,-0.0509 -0.13991,-0.0184 -0.46901,-0.042 -0.73134,-0.0525 -0.28077,-0.0114 -0.64709,-0.004 -0.89032,0.0185 -0.22734,0.0207 -0.58504,0.0719 -0.79492,0.11352 -0.20987,0.042 -0.48078,0.10525 -0.60192,0.14086 l -0.22003,0.0645 0.10874,-0.11479 c 0.0601,-0.0633 0.29508,-0.27854 0.52243,-0.47855 0.22735,-0.19968 0.55645,-0.45978 0.73133,-0.57806 0.17489,-0.11797 0.43244,-0.28013 0.57235,-0.35995 0.13991,-0.0801 0.51925,-0.2849 0.84263,-0.45502 0.32369,-0.17042 0.68838,-0.36725 0.81082,-0.43752 0.12242,-0.0703 0.35868,-0.22163 0.52466,-0.33642 0.1663,-0.11479 0.43943,-0.34499 0.60735,-0.51193 0.16789,-0.16693 0.36216,-0.38952 0.43212,-0.49445 0.07,-0.10493 0.13672,-0.22926 0.14817,-0.276 0.0114,-0.0467 0.005,-0.12559 -0.013,-0.17488 -0.0187,-0.0493 -0.0696,-0.12719 -0.11351,-0.17297 l -0.0795,-0.0836 0.39874,-0.1469 c 0.2194,-0.0808 0.58887,-0.20446 0.821,-0.27473 0.23212,-0.07 0.65087,-0.17679 0.9307,-0.23689 0.27981,-0.0601 0.66614,-0.13196 0.85852,-0.15994 0.19237,-0.0277 0.49286,-0.0633 0.66774,-0.0789 0.17489,-0.0156 0.61845,-0.0232 0.98571,-0.0169 z m -7.1864,7.0474 c 0.27981,-0.002 0.66614,0.0105 0.85852,0.0283 0.19237,0.0178 0.51448,0.0614 0.71544,0.0967 0.20128,0.0353 0.53038,0.10588 0.73133,0.15707 0.20128,0.0512 0.53038,0.14881 0.73134,0.21686 0.20127,0.0684 0.49444,0.17743 0.65184,0.24261 0.15739,0.0652 0.5008,0.22798 0.76313,0.36185 0.26233,0.13387 0.68461,0.38188 0.93802,0.55073 0.25374,0.16916 0.58252,0.40541 0.7307,0.52497 0.14817,0.11956 0.40891,0.35136 0.57933,0.5148 0.17043,0.16343 0.4283,0.43975 0.57297,0.61432 0.145,0.17457 0.36122,0.46297 0.4811,0.64103 0.11987,0.17775 0.30843,0.50939 0.41876,0.73671 0.11034,0.22735 0.24421,0.54247 0.29763,0.69988 0.0534,0.15772 0.12114,0.39397 0.1504,0.52466 0.0363,0.16089 0.0538,0.38283 0.0538,0.68329 3.2e-4,0.30367 -0.0169,0.52434 -0.054,0.69416 -0.0299,0.13705 -0.0983,0.3733 -0.15167,0.52466 -0.0538,0.15167 -0.15867,0.39714 -0.23339,0.54595 -0.0747,0.1485 -0.22099,0.39906 -0.32497,0.55645 -0.10397,0.1574 -0.27949,0.40065 -0.39015,0.54056 -0.11097,0.1399 -0.42449,0.47791 -0.69702,0.75106 -0.2725,0.27314 -0.60637,0.57807 -0.74214,0.67729 -0.13577,0.0992 -0.35263,0.23752 -0.48173,0.30716 -0.12941,0.0696 -0.35454,0.17043 -0.50048,0.22385 -0.14595,0.0538 -0.38729,0.12401 -0.53642,0.15676 -0.14881,0.0328 -0.43817,0.0757 -0.64292,0.0957 -0.27855,0.027 -0.48237,0.0273 -0.8102,0 -0.24102,-0.0197 -0.61181,-0.0709 -0.82387,-0.11384 -0.2124,-0.0426 -0.55581,-0.1291 -0.76313,-0.19206 -0.20763,-0.063 -0.55613,-0.18696 -0.77491,-0.27536 -0.21844,-0.0887 -0.5978,-0.26105 -0.84262,-0.38315 -0.24484,-0.12242 -0.58825,-0.30843 -0.76314,-0.41369 -0.17488,-0.10524 -0.46582,-0.2903 -0.64675,-0.41113 -0.18092,-0.12051 -0.45279,-0.31416 -0.60414,-0.4299 -0.15136,-0.11574 -0.39683,-0.31098 -0.54564,-0.43371 -0.1485,-0.12306 -0.48269,-0.43181 -0.74249,-0.68616 -0.25978,-0.25437 -0.58316,-0.59145 -0.7183,-0.74883 -0.13545,-0.1574 -0.3485,-0.42163 -0.47377,-0.58728 -0.12528,-0.16534 -0.22767,-0.31002 -0.22767,-0.32115 0,-0.0111 0.07,-0.0636 0.1558,-0.11669 0.0941,-0.0588 0.18761,-0.15199 0.23721,-0.23626 0.0448,-0.0766 0.11733,-0.27504 0.1609,-0.44071 0.0436,-0.16566 0.10079,-0.45152 0.12719,-0.63497 0.0264,-0.18379 0.0706,-0.69158 0.0979,-1.1288 0.0277,-0.43721 0.0716,-0.93738 0.0976,-1.1116 0.0261,-0.17424 0.077,-0.4318 0.11256,-0.57235 0.0359,-0.14054 0.10906,-0.36312 0.16248,-0.49412 0.0537,-0.13133 0.16344,-0.35232 0.24389,-0.49127 0.0887,-0.15262 0.24166,-0.34786 0.38697,-0.49285 0.13704,-0.13673 0.34945,-0.30526 0.49476,-0.39174 0.13991,-0.0836 0.3927,-0.20128 0.56154,-0.2617 0.16885,-0.0604 0.44866,-0.13863 0.62165,-0.17392 0.17297,-0.035 0.43435,-0.0763 0.58127,-0.0919 0.14659,-0.0153 0.49571,-0.0296 0.77554,-0.0321 z m 11.097,-5.5651 c -0.0874,10e-4 -0.19683,0.0134 -0.24325,0.0273 -0.0461,0.014 -0.17075,0.0719 -0.27696,0.12814 -0.10588,0.0566 -0.27981,0.18156 -0.38601,0.27791 -0.1062,0.096 -0.28395,0.29126 -0.39492,0.43339 -0.11129,0.14213 -0.32751,0.45884 -0.48077,0.70366 -0.15327,0.24483 -0.47442,0.74563 -0.71384,1.1129 -0.23912,0.36725 -0.58504,0.918 -0.76856,1.2242 -0.18315,0.30588 -0.45025,0.76633 -0.59334,1.0226 -0.19333,0.3469 -0.2601,0.49635 -0.2601,0.58281 0,0.0855 0.0238,0.14055 0.0906,0.207 0.0499,0.0499 0.14245,0.10048 0.20605,0.11225 0.0925,0.0175 0.14404,0.005 0.26041,-0.0633 0.0798,-0.0467 0.35677,-0.29508 0.6153,-0.552 0.25819,-0.2566 0.60603,-0.63119 0.77268,-0.83244 0.16662,-0.20128 0.47378,-0.5946 0.68267,-0.87442 0.20859,-0.27982 0.57012,-0.74501 0.80288,-1.0334 0.23276,-0.28872 0.49413,-0.63211 0.58064,-0.76313 0.0868,-0.13133 0.20572,-0.3396 0.26487,-0.46297 0.0588,-0.12337 0.12973,-0.31161 0.15708,-0.41781 0.0277,-0.10653 0.0503,-0.28204 0.0503,-0.38984 0,-0.10779 -0.0159,-0.22735 -0.0356,-0.26582 -0.0194,-0.0381 -0.0658,-0.0941 -0.10335,-0.12433 -0.0451,-0.0365 -0.12114,-0.054 -0.22671,-0.0528 z m 1.3355,2.3196 c -0.14627,10e-4 -0.27664,0.0235 -0.38061,0.0655 -0.0871,0.0353 -0.24675,0.12751 -0.35486,0.20478 -0.10843,0.0773 -0.29921,0.25151 -0.42417,0.38728 -0.12497,0.13578 -0.31861,0.37553 -0.43086,0.53292 -0.11224,0.1574 -0.31065,0.46488 -0.44071,0.68364 -0.13037,0.21845 -0.45756,0.81941 -0.7275,1.3355 -0.26964,0.51575 -0.52115,0.98823 -0.55899,1.0493 -0.0375,0.0611 -0.0684,0.15422 -0.0684,0.20668 0,0.0524 0.0277,0.13736 0.0617,0.18856 0.0337,0.0515 0.0944,0.1116 0.13482,0.13418 0.0404,0.0222 0.1256,0.0414 0.18888,0.0416 0.0738,10e-4 0.21176,-0.0467 0.38156,-0.13165 0.20859,-0.10397 0.32497,-0.19205 0.53801,-0.40541 0.16693,-0.16725 0.39905,-0.45661 0.60163,-0.74947 0.18124,-0.26232 0.41654,-0.59877 0.52275,-0.74723 0.1062,-0.14849 0.31606,-0.414 0.46678,-0.5895 0.16821,-0.19588 0.41527,-0.43213 0.64006,-0.61181 0.20159,-0.16089 0.40477,-0.34246 0.45152,-0.40383 0.0467,-0.0614 0.11256,-0.17234 0.14626,-0.24674 0.034,-0.0744 0.062,-0.20255 0.0623,-0.28427 3.1e-4,-0.082 -0.0146,-0.18951 -0.0334,-0.23848 -0.0185,-0.0493 -0.0652,-0.12369 -0.10334,-0.16534 -0.0381,-0.0416 -0.15517,-0.1167 -0.2601,-0.16694 -0.15581,-0.0744 -0.23149,-0.0909 -0.41337,-0.0893 z m 0.59877,3.3059 c -0.0496,5.7e-4 -0.11861,0.0175 -0.15359,0.0375 -0.035,0.02 -0.17806,0.13164 -0.31797,0.24833 -0.1399,0.11638 -0.37298,0.32338 -0.51797,0.45979 -0.14468,0.13641 -0.36917,0.37393 -0.49827,0.52783 -0.12941,0.15422 -0.29253,0.36504 -0.36312,0.46869 -0.0703,0.10366 -0.18538,0.30112 -0.25597,0.4388 -0.0703,0.138 -0.16439,0.35772 -0.20858,0.48841 -0.0445,0.13068 -0.0897,0.31288 -0.10048,0.40478 -0.0133,0.11351 -0.007,0.18251 0.0204,0.21526 0.022,0.0267 0.0728,0.0483 0.11288,0.0483 0.0547,0 0.1167,-0.0614 0.24801,-0.24643 0.096,-0.13546 0.2512,-0.32688 0.34437,-0.42545 0.0932,-0.0983 0.31988,-0.31225 0.50335,-0.47537 0.18379,-0.16312 0.44579,-0.40445 0.58253,-0.53641 0.13705,-0.13196 0.31733,-0.32592 0.40128,-0.43085 0.0839,-0.10493 0.19714,-0.27028 0.25183,-0.36758 0.0544,-0.0973 0.12783,-0.26042 0.16312,-0.3628 0.0353,-0.10207 0.0639,-0.21336 0.0639,-0.24675 0,-0.0337 -0.042,-0.10302 -0.0928,-0.15422 -0.0598,-0.0598 -0.12497,-0.0925 -0.18284,-0.0919 z"
         id="icon" /></g></g></svg>